<?xml version="1.0" encoding="iso-8859-1" standalone="no"?> 
<?xml-stylesheet href="tmp.css" type="text/css"?> 
<svg xmlns="http://www.w3.org/2000/svg" xmlns:xlink="http://www.w3.org/1999/xlink" width="272.79617pt" height="132.52765pt" viewBox="-40.50829 -93.4402 272.79617 132.52765 "> 
<g transform="translate(0, 39.08745 ) scale(1,-1) translate(0,93.4402 )"> 
          <g stroke="#000" fill="#000">
 <g stroke-width="0.4">
 <g transform="translate(-36.593,-3.07732)">
 <g fill="#000">
 <text style="stroke:none" transform="scale(1,-1) translate(36.593,0)" text-anchor="middle"  font-size="12"> 
<g fill="#000">
 <g stroke="none"> <img 
src="tmp6x.svg" alt="(         )
 (Rβ )1∕ρ ≡"  class="left" align="middle"><tspan font-family="wasy" font-size="10">Þ</tspan></g> </g>
 </text> 
</g>
 </g>
 <g transform="translate(167.04573,-4.09999)">
 <g fill="#000">
 <text style="stroke:none" transform="scale(1,-1) translate(3.67079,0)" text-anchor="middle"  font-size="12"> 
<g fill="#000">
 <g stroke="none"> <tspan font-family="cmr" font-size="12">Γ</tspan> </g> </g>
 </text> 
</g>
 </g>
 <g transform="translate(91.5357,-89.52492)">
 <g fill="#000">
 <text style="stroke:none" transform="scale(1,-1) translate(3.78119,0)" text-anchor="middle"  font-size="12"> 
<g fill="#000">
 <g stroke="none"> <tspan font-family="cmss" font-size="12">R</tspan> </g> </g>
 </text> 
</g>
 </g>
 <path d=" M 40.70828 11.39267 C 87.83113 19.70146 117.96657 24.58096 159.54765 9.44649  " fill="none"/>
 <g transform="matrix(0.93968,-0.34201,0.34201,0.93968,159.54764,9.44649)">
 <path d=" M 3.59995 0.0 C 2.53328 0.2 0.79999 0.79999 -0.4 1.49997 L -0.4 -1.49997 C 0.79999 -0.79999 2.53328 -0.2 3.59995 0.0  " stroke="none"/>
  </g>
 <g transform="translate(54.31271,26.17216)">
 <g fill="#000">
 <text style="stroke:none" transform="scale(1,-1) translate(48.31624,0)" text-anchor="middle"  font-size="12"> 
<g fill="#000">
 <g stroke="none"> PF-GIC  <img 
src="tmp7x.svg" alt="(≡ ÞÞÞ &#x003C;  Γ )"  class="left" align="middle"></g> </g>
 </text> 
</g>
 </g>
 <path d=" M 162.93045 -2.83292 C 117.96657 -19.19957 87.83113 -15.4869 44.25345 -7.80139  " fill="none"/>
 <g transform="matrix(-0.98479,0.17366,-0.17366,-0.98479,44.25346,-7.8014)">
 <path d=" M 3.59995 0.0 C 2.53328 0.2 0.79999 0.79999 -0.4 1.49997 L -0.4 -1.49997 C 0.79999 -0.79999 2.53328 -0.2 3.59995 0.0  " stroke="none"/>
  </g>
 <g transform="translate(81.87224,-26.13194)">
 <g fill="#000">
 <text style="stroke:none" transform="scale(1,-1) translate(20.75671,0)" text-anchor="middle"  font-size="12"> 
<g fill="#000">
 <g stroke="none"> <img 
src="tmp8x.svg" alt="-PF---GI-C-"  class="mathpalette" > </g> </g>
 </text> 
</g>
 </g>
 <path d=" M 40.70828 -11.39267 L 87.06458 -74.18033  " fill="none"/>
 <g transform="matrix(0.59392,-0.80446,0.80446,0.59392,87.06456,-74.18033)">
 <path d=" M 3.59995 0.0 C 2.53328 0.2 0.79999 0.79999 -0.4 1.49997 L -0.4 -1.49997 C 0.79999 -0.79999 2.53328 -0.2 3.59995 0.0  " stroke="none"/>
  </g>
 <g transform="translate(-17.86661,-57.34978)">
 <g fill="#000">
 <text style="stroke:none" transform="scale(1,-1) translate(39.3534,0)" text-anchor="middle"  font-size="12"> 
<g fill="#000">
 <g stroke="none"> <img 
src="tmp9x.svg" alt="(ÞÞÞ &#x003C; R ≡ )"  class="left" align="middle"> RIC</g> </g>
 </text> 
</g>
 </g>
 <path d=" M 163.46135 -8.21527 L 105.00845 -74.37863  " fill="none"/>
 <g transform="matrix(-0.66205,-0.74937,0.74937,-0.66205,105.00847,-74.37862)">
 <path d=" M 3.59995 0.0 C 2.53328 0.2 0.79999 0.79999 -0.4 1.49997 L -0.4 -1.49997 C 0.79999 -0.79999 2.53328 -0.2 3.59995 0.0  " stroke="none"/>
  </g>
 <g transform="translate(137.15852,-55.76108)">
 <g fill="#000">
 <text style="stroke:none" transform="scale(1,-1) translate(45.60704,0)" text-anchor="middle"  font-size="12"> 
<g fill="#000">
 <g stroke="none"> FHWC <img 
src="tmp10x.svg" alt="(≡ Γ &#x003C;  R)"  class="left" align="middle"></g> </g>
 </text> 
</g>
 </g>
 </g>
 </g>
 
                                                                      </g> 
</svg> 
