<?xml version="1.0" encoding="utf-8" standalone="no"?>
<!DOCTYPE svg PUBLIC "-//W3C//DTD SVG 1.1//EN"
  "http://www.w3.org/Graphics/SVG/1.1/DTD/svg11.dtd">
<!-- Created with matplotlib (https://matplotlib.org/) -->
<svg height="648pt" version="1.1" viewBox="0 0 864 648" width="864pt" xmlns="http://www.w3.org/2000/svg" xmlns:xlink="http://www.w3.org/1999/xlink">
 <defs>
  <style type="text/css">
*{stroke-linecap:butt;stroke-linejoin:round;white-space:pre;}
  </style>
 </defs>
 <g id="figure_1">
  <g id="patch_1">
   <path d="M 0 648 
L 864 648 
L 864 0 
L 0 0 
z
" style="fill:#ffffff;"/>
  </g>
  <g id="axes_1">
   <g id="patch_2">
    <path d="M 108 576.72 
L 777.6 576.72 
L 777.6 77.76 
L 108 77.76 
z
" style="fill:#ffffff;"/>
   </g>
   <g id="patch_3">
    <path clip-path="url(#p8b42173c39)" d="M 491.498182 145.476 
L 500.629091 141.912 
L 500.629091 145.44036 
L 528.021818 145.44036 
L 528.021818 145.51164 
L 500.629091 145.51164 
L 500.629091 149.04 
z
" style="stroke:#000000;stroke-linejoin:miter;"/>
   </g>
   <g id="matplotlib.axis_1">
    <g id="xtick_1">
     <g id="line2d_1">
      <defs>
       <path d="M 0 0 
L 0 3.5 
" id="m5cf8043eeb" style="stroke:#000000;stroke-width:0.8;"/>
      </defs>
      <g>
       <use style="stroke:#000000;stroke-width:0.8;" x="108" xlink:href="#m5cf8043eeb" y="576.72"/>
      </g>
     </g>
     <g id="line2d_2">
      <defs>
       <path d="M 0 0 
L 0 -3.5 
" id="m1d1ee92c4f" style="stroke:#000000;stroke-width:0.8;"/>
      </defs>
      <g>
       <use style="stroke:#000000;stroke-width:0.8;" x="108" xlink:href="#m1d1ee92c4f" y="77.76"/>
      </g>
     </g>
    </g>
    <g id="xtick_2">
     <g id="line2d_3">
      <g>
       <use style="stroke:#000000;stroke-width:0.8;" x="229.745455" xlink:href="#m5cf8043eeb" y="576.72"/>
      </g>
     </g>
     <g id="line2d_4">
      <g>
       <use style="stroke:#000000;stroke-width:0.8;" x="229.745455" xlink:href="#m1d1ee92c4f" y="77.76"/>
      </g>
     </g>
    </g>
    <g id="xtick_3">
     <g id="line2d_5">
      <g>
       <use style="stroke:#000000;stroke-width:0.8;" x="351.490909" xlink:href="#m5cf8043eeb" y="576.72"/>
      </g>
     </g>
     <g id="line2d_6">
      <g>
       <use style="stroke:#000000;stroke-width:0.8;" x="351.490909" xlink:href="#m1d1ee92c4f" y="77.76"/>
      </g>
     </g>
    </g>
    <g id="xtick_4">
     <g id="line2d_7">
      <g>
       <use style="stroke:#000000;stroke-width:0.8;" x="473.236364" xlink:href="#m5cf8043eeb" y="576.72"/>
      </g>
     </g>
     <g id="line2d_8">
      <g>
       <use style="stroke:#000000;stroke-width:0.8;" x="473.236364" xlink:href="#m1d1ee92c4f" y="77.76"/>
      </g>
     </g>
    </g>
    <g id="xtick_5">
     <g id="line2d_9">
      <g>
       <use style="stroke:#000000;stroke-width:0.8;" x="594.981818" xlink:href="#m5cf8043eeb" y="576.72"/>
      </g>
     </g>
     <g id="line2d_10">
      <g>
       <use style="stroke:#000000;stroke-width:0.8;" x="594.981818" xlink:href="#m1d1ee92c4f" y="77.76"/>
      </g>
     </g>
    </g>
    <g id="xtick_6">
     <g id="line2d_11">
      <g>
       <use style="stroke:#000000;stroke-width:0.8;" x="716.727273" xlink:href="#m5cf8043eeb" y="576.72"/>
      </g>
     </g>
     <g id="line2d_12">
      <g>
       <use style="stroke:#000000;stroke-width:0.8;" x="716.727273" xlink:href="#m1d1ee92c4f" y="77.76"/>
      </g>
     </g>
    </g>
   </g>
   <g id="matplotlib.axis_2">
    <g id="ytick_1">
     <g id="line2d_13">
      <defs>
       <path d="M 0 0 
L -3.5 0 
" id="m1bbeac3c87" style="stroke:#000000;stroke-width:0.8;"/>
      </defs>
      <g>
       <use style="stroke:#000000;stroke-width:0.8;" x="108" xlink:href="#m1bbeac3c87" y="576.72"/>
      </g>
     </g>
     <g id="line2d_14">
      <defs>
       <path d="M 0 0 
L 3.5 0 
" id="mef68242852" style="stroke:#000000;stroke-width:0.8;"/>
      </defs>
      <g>
       <use style="stroke:#000000;stroke-width:0.8;" x="777.6" xlink:href="#mef68242852" y="576.72"/>
      </g>
     </g>
    </g>
    <g id="ytick_2">
     <g id="line2d_15">
      <g>
       <use style="stroke:#000000;stroke-width:0.8;" x="108" xlink:href="#m1bbeac3c87" y="505.44"/>
      </g>
     </g>
     <g id="line2d_16">
      <g>
       <use style="stroke:#000000;stroke-width:0.8;" x="777.6" xlink:href="#mef68242852" y="505.44"/>
      </g>
     </g>
    </g>
    <g id="ytick_3">
     <g id="line2d_17">
      <g>
       <use style="stroke:#000000;stroke-width:0.8;" x="108" xlink:href="#m1bbeac3c87" y="434.16"/>
      </g>
     </g>
     <g id="line2d_18">
      <g>
       <use style="stroke:#000000;stroke-width:0.8;" x="777.6" xlink:href="#mef68242852" y="434.16"/>
      </g>
     </g>
    </g>
    <g id="ytick_4">
     <g id="line2d_19">
      <g>
       <use style="stroke:#000000;stroke-width:0.8;" x="108" xlink:href="#m1bbeac3c87" y="362.88"/>
      </g>
     </g>
     <g id="line2d_20">
      <g>
       <use style="stroke:#000000;stroke-width:0.8;" x="777.6" xlink:href="#mef68242852" y="362.88"/>
      </g>
     </g>
    </g>
    <g id="ytick_5">
     <g id="line2d_21">
      <g>
       <use style="stroke:#000000;stroke-width:0.8;" x="108" xlink:href="#m1bbeac3c87" y="291.6"/>
      </g>
     </g>
     <g id="line2d_22">
      <g>
       <use style="stroke:#000000;stroke-width:0.8;" x="777.6" xlink:href="#mef68242852" y="291.6"/>
      </g>
     </g>
    </g>
    <g id="ytick_6">
     <g id="line2d_23">
      <g>
       <use style="stroke:#000000;stroke-width:0.8;" x="108" xlink:href="#m1bbeac3c87" y="220.32"/>
      </g>
     </g>
     <g id="line2d_24">
      <g>
       <use style="stroke:#000000;stroke-width:0.8;" x="777.6" xlink:href="#mef68242852" y="220.32"/>
      </g>
     </g>
    </g>
    <g id="ytick_7">
     <g id="line2d_25">
      <g>
       <use style="stroke:#000000;stroke-width:0.8;" x="108" xlink:href="#m1bbeac3c87" y="149.04"/>
      </g>
     </g>
     <g id="line2d_26">
      <g>
       <use style="stroke:#000000;stroke-width:0.8;" x="777.6" xlink:href="#mef68242852" y="149.04"/>
      </g>
     </g>
    </g>
    <g id="ytick_8">
     <g id="line2d_27">
      <g>
       <use style="stroke:#000000;stroke-width:0.8;" x="108" xlink:href="#m1bbeac3c87" y="77.76"/>
      </g>
     </g>
     <g id="line2d_28">
      <g>
       <use style="stroke:#000000;stroke-width:0.8;" x="777.6" xlink:href="#mef68242852" y="77.76"/>
      </g>
     </g>
    </g>
   </g>
   <g id="line2d_29">
    <path clip-path="url(#p8b42173c39)" d="M 108.57887 576.088214 
L 131.154791 551.603994 
L 141.574447 540.609425 
L 149.099754 532.965626 
L 154.888452 527.383482 
L 159.51941 523.205565 
L 163.571499 519.836665 
L 167.044717 517.209582 
L 170.517936 514.848544 
L 173.991155 512.755056 
L 177.464373 510.909315 
L 181.516462 509.025186 
L 185.56855 507.377453 
L 190.199509 505.720987 
L 195.988206 503.908866 
L 202.355774 502.161755 
L 209.881081 500.340199 
L 218.564128 498.478731 
L 228.404914 496.600031 
L 239.98231 494.626096 
L 253.296314 492.591348 
L 268.925799 490.434349 
L 287.449631 488.107541 
L 309.446683 485.573887 
L 335.495823 482.80361 
L 366.175921 479.771277 
L 402.065848 476.453739 
L 443.744472 472.829053 
L 492.369533 468.829348 
L 548.519902 464.439793 
L 613.353317 459.601185 
L 686.290909 454.381231 
L 686.290909 454.381231 
" style="fill:none;stroke:#000000;stroke-linecap:square;stroke-width:1.5;"/>
   </g>
   <g id="line2d_30">
    <path clip-path="url(#p8b42173c39)" d="M 108.57887 576.085284 
L 134.62801 547.68203 
L 147.363145 534.125994 
L 156.625061 524.586964 
L 163.571499 517.723896 
L 169.939066 511.744945 
L 175.727764 506.632748 
L 180.937592 502.319893 
L 186.72629 497.834263 
L 193.093857 493.211622 
L 200.619165 488.05333 
L 209.881081 481.991193 
L 222.616216 473.939185 
L 241.718919 462.15133 
L 272.399017 443.509291 
L 326.812776 410.738911 
L 431.009337 348.28184 
L 649.822113 217.42173 
L 686.290909 195.625409 
L 686.290909 195.625409 
" style="fill:none;stroke:#000000;stroke-linecap:square;stroke-width:1.5;"/>
   </g>
   <g id="line2d_31">
    <path clip-path="url(#p8b42173c39)" d="M 108.57887 576.088214 
L 131.733661 550.981324 
L 142.153317 539.994798 
L 149.678624 532.355238 
L 155.467322 526.7697 
L 160.09828 522.577261 
L 164.150369 519.178494 
L 168.202457 516.083637 
L 171.675676 513.6936 
L 175.148894 511.542273 
L 179.200983 509.304368 
L 183.253071 507.311803 
L 187.884029 505.2709 
L 193.672727 502.985147 
L 200.040295 500.715811 
L 207.565602 498.264937 
L 216.827518 495.484338 
L 228.404914 492.254417 
L 242.297789 488.61801 
L 259.663882 484.310233 
L 282.818673 478.811982 
L 314.656511 471.500123 
L 360.387224 461.245098 
L 430.430467 445.786761 
L 543.888943 420.996584 
L 686.290909 390.056247 
L 686.290909 390.056247 
" style="fill:none;stroke:#000000;stroke-linecap:square;stroke-width:1.5;"/>
   </g>
   <g id="line2d_32">
    <path clip-path="url(#p8b42173c39)" d="M 108.57887 576.088214 
L 131.154791 551.603494 
L 141.574447 540.607298 
L 149.099754 532.960235 
L 154.888452 527.372704 
L 159.51941 523.186955 
L 163.571499 519.807052 
L 167.044717 517.166448 
L 170.517936 514.787572 
L 173.991155 512.671913 
L 177.464373 510.800043 
L 181.516462 508.88102 
L 186.14742 506.969101 
L 191.357248 505.091864 
L 197.145946 503.257331 
L 204.092383 501.308596 
L 212.19656 499.283841 
L 221.458477 497.202606 
L 232.457002 494.96085 
L 245.771007 492.483711 
L 261.979361 489.704588 
L 282.818673 486.370921 
L 310.025553 482.258234 
L 346.494349 476.98437 
L 396.85602 469.941276 
L 468.057002 460.224182 
L 571.095823 446.403216 
L 686.290909 431.120077 
L 686.290909 431.120077 
" style="fill:none;stroke:#000000;stroke-linecap:square;stroke-width:1.5;"/>
   </g>
   <g id="line2d_33">
    <path clip-path="url(#p8b42173c39)" d="M 108 576.72 
L 503.672727 113.4 
L 503.672727 113.4 
" style="fill:none;stroke:#000000;stroke-linecap:square;stroke-width:1.5;"/>
   </g>
   <g id="patch_4">
    <path d="M 108 576.72 
L 108 77.76 
" style="fill:none;stroke:#000000;stroke-linecap:square;stroke-linejoin:miter;stroke-width:0.8;"/>
   </g>
   <g id="patch_5">
    <path d="M 777.6 576.72 
L 777.6 77.76 
" style="fill:none;stroke:#000000;stroke-linecap:square;stroke-linejoin:miter;stroke-width:0.8;"/>
   </g>
   <g id="patch_6">
    <path d="M 108 576.72 
L 777.6 576.72 
" style="fill:none;stroke:#000000;stroke-linecap:square;stroke-linejoin:miter;stroke-width:0.8;"/>
   </g>
   <g id="patch_7">
    <path d="M 108 77.76 
L 777.6 77.76 
" style="fill:none;stroke:#000000;stroke-linecap:square;stroke-linejoin:miter;stroke-width:0.8;"/>
   </g>
   <g id="text_1">
    <!-- $c_{T   }(m) = 45$ degree line -->
    <defs>
     <path d="M 39.09375 38 
C 37.203125 38 36.296875 38 34.90625 36.796875 
C 34.296875 36.296875 33.203125 34.796875 33.203125 33.1875 
C 33.203125 31.1875 34.703125 29.984375 36.59375 29.984375 
C 39 29.984375 41.703125 31.984375 41.703125 35.984375 
C 41.703125 40.484375 37.09375 44 30.203125 44 
C 17.09375 44 4 30.1875 4 15.796875 
C 4 6.96875 9.40625 -1 19.59375 -1 
C 33.203125 -1 41.796875 9.71875 41.796875 11.03125 
C 41.796875 11.640625 41.203125 12.140625 40.796875 12.140625 
C 40.5 12.140625 40.40625 12.046875 39.5 11.125 
C 33.09375 2.515625 23.59375 1 19.796875 1 
C 12.90625 1 10.703125 7.078125 10.703125 12.140625 
C 10.703125 15.6875 12.40625 25.53125 16 32.390625 
C 18.59375 37.09375 24 41.984375 30.296875 41.984375 
C 31.59375 41.984375 37.09375 41.8125 39.09375 38 
z
" id="CMMI12-99"/>
     <path d="M 41.703125 60.71875 
C 42.296875 63.09375 42.5 64 44 64.390625 
C 44.796875 64.59375 48.09375 64.59375 50.203125 64.59375 
C 60.203125 64.59375 64.90625 64.203125 64.90625 56.4375 
C 64.90625 54.9375 64.5 51.15625 63.90625 47.46875 
L 63.796875 46.28125 
C 63.796875 45.890625 64.203125 45.28125 64.796875 45.28125 
C 65.796875 45.28125 65.796875 45.78125 66.09375 47.375 
L 69 64.984375 
C 69.203125 65.890625 69.203125 66.09375 69.203125 66.390625 
C 69.203125 67.484375 68.59375 67.484375 66.59375 67.484375 
L 11.90625 67.484375 
C 9.59375 67.484375 9.5 67.390625 8.90625 65.59375 
L 2.796875 47.671875 
C 2.703125 47.46875 2.40625 46.375 2.40625 46.28125 
C 2.40625 45.78125 2.796875 45.28125 3.40625 45.28125 
C 4.203125 45.28125 4.40625 45.6875 4.796875 46.984375 
C 9 59.015625 11.09375 64.59375 24.40625 64.59375 
L 31.09375 64.59375 
C 33.5 64.59375 34.5 64.59375 34.5 63.5 
C 34.5 63.203125 34.5 63 34 61.203125 
L 20.59375 7.765625 
C 19.59375 3.890625 19.40625 2.890625 8.796875 2.890625 
C 6.296875 2.890625 5.59375 2.890625 5.59375 1 
C 5.59375 0 6.703125 0 7.203125 0 
C 9.703125 0 12.296875 0.1875 14.796875 0.1875 
L 30.40625 0.1875 
C 32.90625 0.1875 35.59375 0 38.09375 0 
C 39.203125 0 40.203125 0 40.203125 1.890625 
C 40.203125 2.890625 39.5 2.890625 36.90625 2.890625 
C 27.90625 2.890625 27.90625 3.78125 27.90625 5.28125 
C 27.90625 5.375 27.90625 6.078125 28.296875 7.671875 
z
" id="CMMI12-84"/>
     <path d="M 30.59375 -24.40625 
C 30.59375 -24.3125 30.59375 -24.109375 30.296875 -23.8125 
C 25.703125 -19.109375 13.40625 -6.296875 13.40625 24.9375 
C 13.40625 56.171875 25.5 68.875 30.40625 73.890625 
C 30.40625 73.984375 30.59375 74.1875 30.59375 74.484375 
C 30.59375 74.796875 30.296875 75 29.90625 75 
C 28.796875 75 20.296875 67.578125 15.40625 56.5625 
C 10.40625 45.453125 9 34.65625 9 25.046875 
C 9 17.828125 9.703125 5.625 15.703125 -7.296875 
C 20.5 -17.703125 28.703125 -25 29.90625 -25 
C 30.40625 -25 30.59375 -24.8125 30.59375 -24.40625 
z
" id="CMR17-40"/>
     <path d="M 20.59375 29.21875 
C 20.796875 29.828125 23.296875 34.8125 27 38 
C 29.59375 40.390625 33 41.984375 36.90625 41.984375 
C 40.90625 41.984375 42.296875 39 42.296875 35.015625 
C 42.296875 34.40625 42.296875 32.421875 41.09375 27.734375 
L 38.59375 17.453125 
C 37.796875 14.453125 35.90625 7.078125 35.703125 5.984375 
C 35.296875 4.484375 34.703125 1.890625 34.703125 1.484375 
C 34.703125 0.09375 35.796875 -1 37.296875 -1 
C 40.296875 -1 40.796875 1.296875 41.703125 4.890625 
L 47.703125 28.71875 
C 47.90625 29.53125 53.09375 41.984375 64.09375 41.984375 
C 68.09375 41.984375 69.5 39 69.5 35.015625 
C 69.5 29.421875 65.59375 18.546875 63.40625 12.5625 
C 62.5 10.171875 62 8.875 62 7.078125 
C 62 2.59375 65.09375 -1 69.90625 -1 
C 79.203125 -1 82.703125 13.65625 82.703125 14.265625 
C 82.703125 14.765625 82.296875 15.15625 81.703125 15.15625 
C 80.796875 15.15625 80.703125 14.859375 80.203125 13.15625 
C 77.90625 5.1875 74.203125 1 70.203125 1 
C 69.203125 1 67.59375 1.09375 67.59375 4.28125 
C 67.59375 6.875 68.796875 10.078125 69.203125 11.171875 
C 71 15.953125 75.5 27.734375 75.5 33.515625 
C 75.5 39.5 72 44 64.40625 44 
C 57.703125 44 52.296875 40.203125 48.296875 34.3125 
C 48 39.703125 44.703125 44 37.203125 44 
C 28.296875 44 23.59375 37.703125 21.796875 35.203125 
C 21.5 40.890625 17.40625 44 13 44 
C 10.09375 44 7.796875 42.59375 5.90625 38.796875 
C 4.09375 35.203125 2.703125 29.125 2.703125 28.71875 
C 2.703125 28.328125 3.09375 27.828125 3.796875 27.828125 
C 4.59375 27.828125 4.703125 27.921875 5.296875 30.21875 
C 6.796875 36.109375 8.703125 41.984375 12.703125 41.984375 
C 15 41.984375 15.796875 40.390625 15.796875 37.40625 
C 15.796875 35.203125 14.796875 31.3125 14.09375 28.234375 
L 11.296875 17.453125 
C 10.90625 15.5625 9.796875 11.0625 9.296875 9.265625 
C 8.59375 6.671875 7.5 1.984375 7.5 1.484375 
C 7.5 0.09375 8.59375 -1 10.09375 -1 
C 11.296875 -1 12.703125 -0.40625 13.5 1.09375 
C 13.703125 1.59375 14.59375 5.078125 15.09375 7.078125 
L 17.296875 16.0625 
z
" id="CMMI12-109"/>
     <path d="M 26.296875 24.9375 
C 26.296875 32.140625 25.59375 44.359375 19.59375 57.265625 
C 14.796875 67.6875 6.59375 75 5.40625 75 
C 5.09375 75 4.703125 74.890625 4.703125 74.390625 
C 4.703125 74.1875 4.796875 74.09375 4.90625 73.890625 
C 9.703125 68.875 21.90625 56.171875 21.90625 25.046875 
C 21.90625 -6.1875 9.796875 -18.90625 4.90625 -23.90625 
C 4.796875 -24.109375 4.703125 -24.203125 4.703125 -24.40625 
C 4.703125 -24.90625 5.09375 -25 5.40625 -25 
C 6.5 -25 15 -17.609375 19.90625 -6.59375 
C 24.90625 4.515625 26.296875 15.328125 26.296875 24.9375 
z
" id="CMR17-41"/>
     <path d="M 64.296875 32 
C 65.796875 32 67.296875 32 67.296875 33.6875 
C 67.296875 35.5 65.59375 35.5 63.90625 35.5 
L 8 35.5 
C 6.296875 35.5 4.59375 35.5 4.59375 33.6875 
C 4.59375 32 6.09375 32 7.59375 32 
z
M 63.90625 14.484375 
C 65.59375 14.484375 67.296875 14.484375 67.296875 16.296875 
C 67.296875 18 65.796875 18 64.296875 18 
L 7.59375 18 
C 6.09375 18 4.59375 18 4.59375 16.296875 
C 4.59375 14.484375 6.296875 14.484375 8 14.484375 
z
" id="CMR17-61"/>
     <path d="M 33.59375 64.796875 
C 33.59375 66.890625 33.5 67 31.703125 67 
L 2 19.59375 
L 2 17 
L 27.796875 17 
L 27.796875 7.1875 
C 27.796875 3.59375 27.59375 2.59375 20.59375 2.59375 
L 18.703125 2.59375 
L 18.703125 0 
C 21.90625 0.1875 27.296875 0.1875 30.703125 0.1875 
C 34.09375 0.1875 39.5 0.1875 42.703125 0 
L 42.703125 2.59375 
L 40.796875 2.59375 
C 33.796875 2.59375 33.59375 3.59375 33.59375 7.1875 
L 33.59375 17 
L 43.796875 17 
L 43.796875 19.59375 
L 33.59375 19.59375 
z
M 28.09375 58.171875 
L 28.09375 19.59375 
L 4 19.59375 
z
" id="CMR17-52"/>
     <path d="M 11.40625 58.59375 
C 12.40625 58.1875 16.5 56.890625 20.703125 56.890625 
C 30 56.890625 35.09375 61.890625 38 64.6875 
C 38 65.484375 38 66 37.40625 66 
C 37.296875 66 37.09375 66 36.296875 65.59375 
C 32.796875 64.09375 28.703125 63 23.703125 63 
C 20.703125 63 16.203125 63.359375 11.296875 65.484375 
C 10.203125 66 10 66 9.90625 66 
C 9.40625 66 9.296875 65.890625 9.296875 63.90625 
L 9.296875 34.859375 
C 9.296875 33.015625 9.296875 32.5 10.296875 32.5 
C 10.796875 32.5 11 32.703125 11.5 33.421875 
C 14.703125 38.046875 19.09375 40 24.09375 40 
C 27.59375 40 35.09375 37.734375 35.09375 20.203125 
C 35.09375 16.984375 35.09375 11.1875 32.09375 6.59375 
C 29.59375 2.484375 25.703125 0.390625 21.40625 0.390625 
C 14.796875 0.390625 8.09375 4.984375 6.296875 12.6875 
C 6.703125 12.59375 7.5 12.390625 7.90625 12.390625 
C 9.203125 12.390625 11.703125 13.09375 11.703125 16.1875 
C 11.703125 18.890625 9.796875 20 7.90625 20 
C 5.59375 20 4.09375 18.59375 4.09375 15.796875 
C 4.09375 7.09375 11 -2 21.59375 -2 
C 31.90625 -2 41.703125 6.890625 41.703125 19.796875 
C 41.703125 32.09375 33.90625 41.59375 24.203125 41.59375 
C 19.09375 41.59375 14.796875 39.6875 11.40625 36 
z
" id="CMR17-53"/>
     <path d="M 29.40625 68.875 
L 29.40625 66.640625 
L 30.5 66.640625 
C 33.59375 66.640625 35.296875 65.734375 35.296875 61.875 
L 35.203125 36.015625 
C 33.296875 40.671875 27.59375 43.828125 22.796875 43.828125 
C 11.09375 43.828125 4.203125 31.859375 4.203125 21.203125 
C 4.203125 11.15625 10.203125 -0.296875 20.90625 -1 
L 21.796875 -1 
C 27.203125 -1 33.09375 2.34375 35.09375 7.3125 
L 35.203125 -1 
L 45.203125 -0.40625 
L 45.203125 1.828125 
L 44 1.828125 
C 40.703125 1.828125 39.296875 3.046875 39.296875 6.59375 
L 39.296875 70 
z
M 9.296875 18.96875 
L 9.296875 20.5 
C 9.296875 27.5 10.296875 35.8125 16.5 40.265625 
C 18.59375 41.796875 21 42.609375 23.40625 42.609375 
C 29.09375 42.609375 35.296875 37.125 35.296875 31.25 
C 35.296875 30.125 35.203125 28.90625 35.203125 27.796875 
L 35.203125 11.46875 
C 35.203125 5.984375 28.296875 0.203125 22.5 0.203125 
C 14.796875 0.203125 10.59375 8.125 9.703125 14.8125 
C 9.5 16.234375 9.5 17.546875 9.296875 18.96875 
z
" id="Computer_Modern_Roman-100"/>
     <path d="M 8.796875 23.671875 
L 35.09375 23.671875 
C 35.296875 23.671875 35.703125 23.5625 36.09375 23.5625 
C 36.796875 23.5625 37.09375 23.96875 37.09375 24.578125 
C 37.09375 33.578125 32.796875 44 21.59375 44 
C 9.59375 44 3.703125 31.546875 3.703125 21.640625 
C 3.703125 11.734375 9.203125 0.515625 21.09375 -1 
C 21.5 -0.90625 21.90625 -1 22.296875 -1 
C 29.203125 -1 34.5 3.828125 36.796875 10.390625 
C 36.90625 10.703125 37 11.09375 37 11.40625 
C 37 11.703125 36.90625 12 36.5 12 
C 35.5 12 35.40625 10.390625 35.09375 9.484375 
C 33.09375 4.640625 28.796875 0.40625 23.203125 0.40625 
C 19 0.40625 15 2.828125 12.703125 6.25 
C 9 11.296875 8.796875 17.765625 8.796875 23.703125 
z
M 8.90625 24.921875 
C 9.09375 32.796875 13 42.78125 21.40625 42.78125 
C 28.40625 42.78125 31.40625 35.3125 32.203125 29.46875 
C 32.296875 27.953125 32.296875 26.4375 32.5 24.921875 
z
" id="Computer_Modern_Roman-101"/>
     <path d="M 10.296875 18.921875 
L 10.296875 18.828125 
C 8.296875 16.828125 7.40625 13.546875 7.40625 10.765625 
C 7.40625 7.1875 8.90625 4.890625 11.703125 2.6875 
C 7 1.890625 2.40625 -2.6875 2.40625 -7.765625 
C 2.40625 -16.21875 14 -20 22.203125 -20 
C 30.203125 -20 42.203125 -17.015625 42.203125 -7.171875 
C 42.203125 -1.6875 38.5 2.5 33.40625 4.09375 
C 29.796875 5.296875 25.90625 5.390625 22.09375 5.390625 
L 19.09375 5.390625 
C 18.203125 5.390625 17.296875 5.296875 16.40625 5.296875 
C 11.59375 5.296875 9.09375 8.28125 9.09375 12.359375 
C 9.09375 14.140625 10.09375 17.734375 11.09375 17.734375 
L 11.203125 17.734375 
C 11.796875 17.734375 13.59375 16.234375 14.796875 15.734375 
C 16.40625 15.046875 18.09375 14.75 19.90625 14.75 
C 28.203125 14.75 33.5 21.90625 33.5 29.171875 
C 33.5 32.453125 32.296875 36.4375 29.90625 38.8125 
L 29.90625 38.921875 
C 32.59375 41.015625 35.40625 42.796875 38.90625 42.796875 
C 39.59375 42.796875 40.296875 42.703125 41 42.5 
C 40.40625 42.109375 39.90625 41.5 39.90625 40.703125 
C 39.90625 39.71875 40.796875 39.015625 41.703125 39.015625 
C 42.90625 39.015625 43.5 39.8125 43.5 40.703125 
C 43.5 43.09375 41.09375 44 39.09375 44 
C 35.796875 44 32.59375 42.59375 30 40.515625 
C 29.796875 40.3125 29.40625 40.015625 29.09375 40.015625 
C 28.5 40.015625 26.5 41.703125 25.203125 42.40625 
C 23.5 43.09375 21.703125 43.5 19.90625 43.5 
C 11.59375 43.5 6.203125 36.234375 6.203125 29.078125 
C 6.203125 25.6875 7.5 21.203125 10.296875 18.921875 
z
M 5.59375 -8.5625 
L 5.59375 -7.765625 
C 5.59375 -4.078125 7.90625 -0.390625 11.203125 1.09375 
C 12.90625 1.890625 14.703125 2 16.59375 2 
L 24.90625 2 
C 30.59375 2 39.09375 0 39.09375 -7.765625 
C 39.09375 -15.53125 28.90625 -18.8125 22.40625 -18.8125 
C 15.703125 -18.8125 6.59375 -15.734375 5.59375 -8.5625 
z
M 11.09375 27.078125 
L 11.09375 28.375 
C 11.09375 33.84375 12.296875 42.203125 19.796875 42.203125 
C 26.296875 42.203125 28.59375 35.640625 28.59375 29.46875 
C 28.59375 25.1875 28.203125 19.625 23.796875 17.125 
C 22.59375 16.390625 21.203125 16 19.90625 16 
C 14 16 11.703125 21.75 11.09375 27.109375 
z
" id="Computer_Modern_Roman-103"/>
     <path d="M 4.5 42.875 
L 4.5 40.65625 
L 5.5 40.65625 
C 8.703125 40.65625 10.40625 39.953125 10.40625 35.515625 
L 10.40625 5.625 
C 10.40625 2.390625 8 2.1875 4.5 2.1875 
L 4.5 0 
L 21.703125 0 
L 21.703125 2.1875 
L 19.703125 2.1875 
C 16.796875 2.1875 14.40625 2.5 14.40625 6.328125 
L 14.40625 21.078125 
C 14.40625 29.65625 16.203125 42.78125 25.90625 42.78125 
C 27 42.78125 28.09375 42.484375 29.09375 42.078125 
C 27.90625 41.5625 26.90625 40.765625 26.90625 39.34375 
C 26.90625 37.9375 28 36.515625 29.703125 36.515625 
C 31.203125 36.515625 32.40625 37.828125 32.40625 39.34375 
C 32.40625 42.6875 28.703125 44 26 44 
C 19.90625 44 15.296875 38.03125 14.40625 32.484375 
L 14.296875 44 
z
" id="Computer_Modern_Roman-114"/>
     <path d="M 4.796875 68.875 
L 4.796875 66.65625 
L 6 66.65625 
C 9.5 66.65625 10.59375 65.046875 10.59375 61.71875 
L 10.59375 5.828125 
C 10.59375 2.796875 9.296875 2.1875 4.796875 2.1875 
L 4.796875 0 
L 20.40625 0 
L 20.40625 2.1875 
L 18.796875 2.1875 
C 16.59375 2.1875 14.59375 2.5 14.59375 5.71875 
L 14.59375 70 
z
" id="Computer_Modern_Roman-108"/>
     <path d="M 5.09375 42.6875 
L 5.09375 40.46875 
L 5.59375 40.46875 
C 8.796875 40.46875 10.59375 39.96875 10.59375 35.15625 
L 10.59375 5.609375 
C 10.59375 2.390625 8.296875 2.1875 4.796875 2.1875 
L 4.796875 0 
L 19.90625 0 
L 19.90625 2.1875 
L 18.59375 2.1875 
C 16.5 2.1875 14.59375 2.390625 14.59375 5.8125 
L 14.59375 43.796875 
z
M 10.90625 65 
C 9.296875 65 8.296875 63.1875 8.296875 61.875 
C 8.296875 60.375 9.5 58.5625 11.40625 58.5625 
C 13.40625 58.5625 14.59375 60.265625 14.59375 61.78125 
C 14.59375 63.1875 13.40625 65 11.5 65 
C 11.296875 65.09375 11.09375 65 10.90625 65 
z
" id="Computer_Modern_Roman-105"/>
     <path d="M 4.703125 42.875 
L 4.703125 40.65625 
L 5.703125 40.65625 
C 8.90625 40.65625 10.59375 39.953125 10.59375 35.515625 
L 10.59375 5.625 
C 10.59375 2.390625 8.203125 2.1875 4.703125 2.1875 
L 4.703125 0 
L 20.59375 0 
L 20.59375 2.1875 
L 19.203125 2.1875 
C 16.90625 2.1875 14.703125 2.5 14.703125 5.625 
L 14.703125 27.734375 
C 15.296875 34.609375 18.796875 42.78125 26.703125 42.78125 
C 33 42.78125 35.40625 37.734375 35.40625 30.46875 
L 35.40625 5.625 
C 35.40625 2.390625 33 2.1875 29.5 2.1875 
L 29.5 0 
L 45.40625 0 
L 45.40625 2.1875 
L 43.796875 2.1875 
C 41.5 2.1875 39.5 2.5 39.5 6.03125 
L 39.5 29.453125 
C 39.5 35.921875 38.296875 44 27.5 44 
C 22.09375 44 18.40625 41.0625 16 36.71875 
C 15.40625 35.609375 14.796875 34.40625 14.59375 33.1875 
L 14.5 44 
z
" id="Computer_Modern_Roman-110"/>
    </defs>
    <g transform="translate(534.109091 149.04)scale(0.22 -0.22)">
     <use transform="translate(0 14.943915)scale(0.996264)" xlink:href="#CMMI12-99"/>
     <use transform="translate(41.983234 0)scale(0.697382)" xlink:href="#CMMI12-84"/>
     <use transform="translate(91.987688 14.943915)scale(0.996264)" xlink:href="#CMR17-40"/>
     <use transform="translate(127.268456 14.943915)scale(0.996264)" xlink:href="#CMMI12-109"/>
     <use transform="translate(212.59568 14.943915)scale(0.996264)" xlink:href="#CMR17-41"/>
     <use transform="translate(275.550457 14.943915)scale(0.996264)" xlink:href="#CMR17-61"/>
     <use transform="translate(374.939254 14.943915)scale(0.996264)" xlink:href="#CMR17-52"/>
     <use transform="translate(420.629731 14.943915)scale(0.996264)" xlink:href="#CMR17-53"/>
     <use transform="translate(476.961106 14.943915)scale(0.356961)" xlink:href="#Computer_Modern_Roman-100"/>
     <use transform="translate(494.710722 14.943915)scale(0.356961)" xlink:href="#Computer_Modern_Roman-101"/>
     <use transform="translate(508.905995 14.943915)scale(0.356961)" xlink:href="#Computer_Modern_Roman-103"/>
     <use transform="translate(524.878447 14.943915)scale(0.356961)" xlink:href="#Computer_Modern_Roman-114"/>
     <use transform="translate(537.296524 14.943915)scale(0.356961)" xlink:href="#Computer_Modern_Roman-101"/>
     <use transform="translate(551.491797 14.943915)scale(0.356961)" xlink:href="#Computer_Modern_Roman-101"/>
     <use transform="translate(576.327967 14.943915)scale(0.356961)" xlink:href="#Computer_Modern_Roman-108"/>
     <use transform="translate(585.191701 14.943915)scale(0.356961)" xlink:href="#Computer_Modern_Roman-105"/>
     <use transform="translate(594.055434 14.943915)scale(0.356961)" xlink:href="#Computer_Modern_Roman-110"/>
     <use transform="translate(611.805051 14.943915)scale(0.356961)" xlink:href="#Computer_Modern_Roman-101"/>
    </g>
   </g>
   <g id="text_2">
    <!-- $c_{T-1 }(m)$ -->
    <defs>
     <path d="M 65.90625 23 
C 67.59375 23 69.40625 23 69.40625 25 
C 69.40625 27 67.59375 27 65.90625 27 
L 11.796875 27 
C 10.09375 27 8.296875 27 8.296875 25 
C 8.296875 23 10.09375 23 11.796875 23 
z
" id="CMSY10-0"/>
     <path d="M 26.59375 63.796875 
C 26.59375 65.890625 26.5 66 25.09375 66 
C 21.203125 61.359375 15.296875 59.890625 9.703125 59.6875 
C 9.40625 59.6875 8.90625 59.6875 8.796875 59.5 
C 8.703125 59.296875 8.703125 59.09375 8.703125 57 
C 11.796875 57 17 57.59375 21 59.984375 
L 21 7.296875 
C 21 3.796875 20.796875 2.59375 12.203125 2.59375 
L 9.203125 2.59375 
L 9.203125 0 
C 14 0.09375 19 0.1875 23.796875 0.1875 
C 28.59375 0.1875 33.59375 0.09375 38.40625 0 
L 38.40625 2.59375 
L 35.40625 2.59375 
C 26.796875 2.59375 26.59375 3.6875 26.59375 7.296875 
z
" id="CMR17-49"/>
    </defs>
    <g transform="translate(692.378182 198.936)scale(0.22 -0.22)">
     <use transform="translate(0 14.943915)scale(0.996264)" xlink:href="#CMMI12-99"/>
     <use transform="translate(41.983234 0)scale(0.697382)" xlink:href="#CMMI12-84"/>
     <use transform="translate(91.489556 0)scale(0.697382)" xlink:href="#CMSY10-0"/>
     <use transform="translate(145.730549 0)scale(0.697382)" xlink:href="#CMR17-49"/>
     <use transform="translate(178.211863 14.943915)scale(0.996264)" xlink:href="#CMR17-40"/>
     <use transform="translate(213.492631 14.943915)scale(0.996264)" xlink:href="#CMMI12-109"/>
     <use transform="translate(298.819855 14.943915)scale(0.996264)" xlink:href="#CMR17-41"/>
    </g>
   </g>
   <g id="text_3">
    <!-- $c_{T-5 }(m)$ -->
    <g transform="translate(692.378182 391.392)scale(0.22 -0.22)">
     <use transform="translate(0 14.943915)scale(0.996264)" xlink:href="#CMMI12-99"/>
     <use transform="translate(41.983234 0)scale(0.697382)" xlink:href="#CMMI12-84"/>
     <use transform="translate(91.489556 0)scale(0.697382)" xlink:href="#CMSY10-0"/>
     <use transform="translate(145.730549 0)scale(0.697382)" xlink:href="#CMR17-53"/>
     <use transform="translate(178.211863 14.943915)scale(0.996264)" xlink:href="#CMR17-40"/>
     <use transform="translate(213.492631 14.943915)scale(0.996264)" xlink:href="#CMMI12-109"/>
     <use transform="translate(298.819855 14.943915)scale(0.996264)" xlink:href="#CMR17-41"/>
    </g>
   </g>
   <g id="text_4">
    <!-- $c_{T-10}(m)$ -->
    <defs>
     <path d="M 42 31.84375 
C 42 37.96875 41.90625 48.421875 37.703125 56.453125 
C 34 63.484375 28.09375 66 22.90625 66 
C 18.09375 66 12 63.78125 8.203125 56.5625 
C 4.203125 49.015625 3.796875 39.671875 3.796875 31.84375 
C 3.796875 26.109375 3.90625 17.375 7 9.734375 
C 11.296875 -0.609375 19 -2 22.90625 -2 
C 27.5 -2 34.5 -0.109375 38.59375 9.4375 
C 41.59375 16.375 42 24.5 42 31.84375 
z
M 22.90625 -0.40625 
C 16.5 -0.40625 12.703125 5.125 11.296875 12.75 
C 10.203125 18.6875 10.203125 27.328125 10.203125 32.953125 
C 10.203125 40.6875 10.203125 47.109375 11.5 53.234375 
C 13.40625 61.78125 19 64.390625 22.90625 64.390625 
C 27 64.390625 32.296875 61.671875 34.203125 53.4375 
C 35.5 47.71875 35.59375 40.984375 35.59375 32.953125 
C 35.59375 26.421875 35.59375 18.375 34.40625 12.453125 
C 32.296875 1.5 26.40625 -0.40625 22.90625 -0.40625 
z
" id="CMR17-48"/>
    </defs>
    <g transform="translate(692.378182 427.032)scale(0.22 -0.22)">
     <use transform="translate(0 14.943915)scale(0.996264)" xlink:href="#CMMI12-99"/>
     <use transform="translate(41.983234 0)scale(0.697382)" xlink:href="#CMMI12-84"/>
     <use transform="translate(91.489556 0)scale(0.697382)" xlink:href="#CMSY10-0"/>
     <use transform="translate(145.730549 0)scale(0.697382)" xlink:href="#CMR17-49"/>
     <use transform="translate(177.713731 0)scale(0.697382)" xlink:href="#CMR17-48"/>
     <use transform="translate(210.195045 14.943915)scale(0.996264)" xlink:href="#CMR17-40"/>
     <use transform="translate(245.475813 14.943915)scale(0.996264)" xlink:href="#CMMI12-109"/>
     <use transform="translate(330.803037 14.943915)scale(0.996264)" xlink:href="#CMR17-41"/>
    </g>
   </g>
   <g id="text_5">
    <!-- $c(m)       $ -->
    <g transform="translate(692.378182 455.544)scale(0.22 -0.22)">
     <use transform="scale(0.996264)" xlink:href="#CMMI12-99"/>
     <use transform="translate(41.983234 0)scale(0.996264)" xlink:href="#CMR17-40"/>
     <use transform="translate(77.264001 0)scale(0.996264)" xlink:href="#CMMI12-109"/>
     <use transform="translate(162.591226 0)scale(0.996264)" xlink:href="#CMR17-41"/>
    </g>
   </g>
   <g id="text_6">
    <!-- $c$ -->
    <g transform="translate(108 74.196)scale(0.26 -0.26)">
     <use transform="scale(0.996264)" xlink:href="#CMMI12-99"/>
    </g>
   </g>
   <g id="text_7">
    <!-- $m$ -->
    <g transform="translate(783.687273 576.72)scale(0.26 -0.26)">
     <use transform="scale(0.996264)" xlink:href="#CMMI12-109"/>
    </g>
   </g>
  </g>
 </g>
 <defs>
  <clipPath id="p8b42173c39">
   <rect height="498.96" width="669.6" x="108" y="77.76"/>
  </clipPath>
 </defs>
</svg>
