<?xml version="1.0" encoding="utf-8" standalone="no"?>
<!DOCTYPE svg PUBLIC "-//W3C//DTD SVG 1.1//EN"
  "http://www.w3.org/Graphics/SVG/1.1/DTD/svg11.dtd">
<!-- Created with matplotlib (https://matplotlib.org/) -->
<svg height="576pt" version="1.1" viewBox="0 0 864 576" width="864pt" xmlns="http://www.w3.org/2000/svg" xmlns:xlink="http://www.w3.org/1999/xlink">
 <defs>
  <style type="text/css">
*{stroke-linecap:butt;stroke-linejoin:round;white-space:pre;}
  </style>
 </defs>
 <g id="figure_1">
  <g id="patch_1">
   <path d="M 0 576 
L 864 576 
L 864 0 
L 0 0 
z
" style="fill:#ffffff;"/>
  </g>
  <g id="axes_1">
   <g id="patch_2">
    <path d="M 108 512.64 
L 777.6 512.64 
L 777.6 69.12 
L 108 69.12 
z
" style="fill:#ffffff;"/>
   </g>
   <g id="matplotlib.axis_1">
    <g id="xtick_1">
     <g id="line2d_1">
      <defs>
       <path d="M 0 0 
L 0 3.5 
" id="m1e29cf5e21" style="stroke:#000000;stroke-width:0.8;"/>
      </defs>
      <g>
       <use style="stroke:#000000;stroke-width:0.8;" x="108" xlink:href="#m1e29cf5e21" y="512.64"/>
      </g>
     </g>
     <g id="line2d_2">
      <defs>
       <path d="M 0 0 
L 0 -3.5 
" id="m7712721aa4" style="stroke:#000000;stroke-width:0.8;"/>
      </defs>
      <g>
       <use style="stroke:#000000;stroke-width:0.8;" x="108" xlink:href="#m7712721aa4" y="69.12"/>
      </g>
     </g>
    </g>
    <g id="xtick_2">
     <g id="line2d_3">
      <g>
       <use style="stroke:#000000;stroke-width:0.8;" x="229.745455" xlink:href="#m1e29cf5e21" y="512.64"/>
      </g>
     </g>
     <g id="line2d_4">
      <g>
       <use style="stroke:#000000;stroke-width:0.8;" x="229.745455" xlink:href="#m7712721aa4" y="69.12"/>
      </g>
     </g>
    </g>
    <g id="xtick_3">
     <g id="line2d_5">
      <g>
       <use style="stroke:#000000;stroke-width:0.8;" x="351.490909" xlink:href="#m1e29cf5e21" y="512.64"/>
      </g>
     </g>
     <g id="line2d_6">
      <g>
       <use style="stroke:#000000;stroke-width:0.8;" x="351.490909" xlink:href="#m7712721aa4" y="69.12"/>
      </g>
     </g>
    </g>
    <g id="xtick_4">
     <g id="line2d_7">
      <g>
       <use style="stroke:#000000;stroke-width:0.8;" x="473.236364" xlink:href="#m1e29cf5e21" y="512.64"/>
      </g>
     </g>
     <g id="line2d_8">
      <g>
       <use style="stroke:#000000;stroke-width:0.8;" x="473.236364" xlink:href="#m7712721aa4" y="69.12"/>
      </g>
     </g>
    </g>
    <g id="xtick_5">
     <g id="line2d_9">
      <g>
       <use style="stroke:#000000;stroke-width:0.8;" x="594.981818" xlink:href="#m1e29cf5e21" y="512.64"/>
      </g>
     </g>
     <g id="line2d_10">
      <g>
       <use style="stroke:#000000;stroke-width:0.8;" x="594.981818" xlink:href="#m7712721aa4" y="69.12"/>
      </g>
     </g>
    </g>
    <g id="xtick_6">
     <g id="line2d_11">
      <g>
       <use style="stroke:#000000;stroke-width:0.8;" x="716.727273" xlink:href="#m1e29cf5e21" y="512.64"/>
      </g>
     </g>
     <g id="line2d_12">
      <g>
       <use style="stroke:#000000;stroke-width:0.8;" x="716.727273" xlink:href="#m7712721aa4" y="69.12"/>
      </g>
     </g>
    </g>
   </g>
   <g id="matplotlib.axis_2">
    <g id="ytick_1">
     <g id="line2d_13">
      <defs>
       <path d="M 0 0 
L -3.5 0 
" id="me6f5b87837" style="stroke:#000000;stroke-width:0.8;"/>
      </defs>
      <g>
       <use style="stroke:#000000;stroke-width:0.8;" x="108" xlink:href="#me6f5b87837" y="512.64"/>
      </g>
     </g>
     <g id="line2d_14">
      <defs>
       <path d="M 0 0 
L 3.5 0 
" id="mf171248264" style="stroke:#000000;stroke-width:0.8;"/>
      </defs>
      <g>
       <use style="stroke:#000000;stroke-width:0.8;" x="777.6" xlink:href="#mf171248264" y="512.64"/>
      </g>
     </g>
    </g>
    <g id="ytick_2">
     <g id="line2d_15">
      <g>
       <use style="stroke:#000000;stroke-width:0.8;" x="108" xlink:href="#me6f5b87837" y="423.936"/>
      </g>
     </g>
     <g id="line2d_16">
      <g>
       <use style="stroke:#000000;stroke-width:0.8;" x="777.6" xlink:href="#mf171248264" y="423.936"/>
      </g>
     </g>
    </g>
    <g id="ytick_3">
     <g id="line2d_17">
      <g>
       <use style="stroke:#000000;stroke-width:0.8;" x="108" xlink:href="#me6f5b87837" y="335.232"/>
      </g>
     </g>
     <g id="line2d_18">
      <g>
       <use style="stroke:#000000;stroke-width:0.8;" x="777.6" xlink:href="#mf171248264" y="335.232"/>
      </g>
     </g>
    </g>
    <g id="ytick_4">
     <g id="line2d_19">
      <g>
       <use style="stroke:#000000;stroke-width:0.8;" x="108" xlink:href="#me6f5b87837" y="246.528"/>
      </g>
     </g>
     <g id="line2d_20">
      <g>
       <use style="stroke:#000000;stroke-width:0.8;" x="777.6" xlink:href="#mf171248264" y="246.528"/>
      </g>
     </g>
    </g>
    <g id="ytick_5">
     <g id="line2d_21">
      <g>
       <use style="stroke:#000000;stroke-width:0.8;" x="108" xlink:href="#me6f5b87837" y="157.824"/>
      </g>
     </g>
     <g id="line2d_22">
      <g>
       <use style="stroke:#000000;stroke-width:0.8;" x="777.6" xlink:href="#mf171248264" y="157.824"/>
      </g>
     </g>
    </g>
    <g id="ytick_6">
     <g id="line2d_23">
      <g>
       <use style="stroke:#000000;stroke-width:0.8;" x="108" xlink:href="#me6f5b87837" y="69.12"/>
      </g>
     </g>
     <g id="line2d_24">
      <g>
       <use style="stroke:#000000;stroke-width:0.8;" x="777.6" xlink:href="#mf171248264" y="69.12"/>
      </g>
     </g>
    </g>
   </g>
   <g id="line2d_25">
    <path clip-path="url(#p91c64a3d98)" d="M -1 427.48558 
L 655.854545 427.48558 
" style="fill:none;stroke:#000000;stroke-linecap:square;stroke-width:1.5;"/>
   </g>
   <g id="line2d_26">
    <path clip-path="url(#p91c64a3d98)" d="M -1 290.88 
L 655.854545 290.88 
" style="fill:none;stroke:#000000;stroke-linecap:square;stroke-width:1.5;"/>
   </g>
   <g id="line2d_27">
    <path clip-path="url(#p91c64a3d98)" d="M 127.528399 -1 
L 131.436704 11.745924 
L 136.124045 26.420651 
L 140.811386 40.504385 
L 145.498727 54.017098 
L 150.186068 66.978035 
L 154.873409 79.405746 
L 159.560749 91.318115 
L 164.24809 102.732387 
L 168.935431 113.666194 
L 173.622772 124.138738 
L 178.310113 134.168251 
L 182.997454 143.772332 
L 187.684795 152.967998 
L 192.372135 161.771696 
L 197.059476 170.199333 
L 201.746817 178.266458 
L 206.434158 185.988794 
L 211.121499 193.381123 
L 215.80884 200.457689 
L 220.496181 207.232296 
L 225.183522 213.718332 
L 229.870862 219.928772 
L 234.558203 225.876231 
L 239.245544 231.572781 
L 243.932885 237.029482 
L 248.620226 242.256986 
L 253.307567 247.265648 
L 257.994908 252.065523 
L 262.682248 256.666391 
L 267.369589 261.077771 
L 272.05693 265.308588 
L 276.744271 269.366758 
L 281.431612 273.259885 
L 286.118953 276.99538 
L 290.806294 280.580462 
L 295.493634 284.022159 
L 300.180975 287.327341 
L 304.868316 290.502548 
L 309.555657 293.553416 
L 314.242998 296.485233 
L 318.930339 299.303168 
L 323.61768 302.012282 
L 328.30502 304.617513 
L 332.992361 307.123695 
L 337.679702 309.535547 
" style="fill:none;stroke:#000000;stroke-linecap:square;stroke-width:1.5;"/>
   </g>
   <g id="line2d_28">
    <path clip-path="url(#p91c64a3d98)" d="M 337.679702 309.535547 
L 344.173066 312.728566 
L 350.66643 315.758278 
L 357.159795 318.634017 
L 363.653159 321.364897 
L 370.146523 323.959793 
L 376.639887 326.427271 
L 383.133251 328.774572 
L 389.626615 331.00807 
L 396.119979 333.133991 
L 402.613344 335.158443 
L 409.106708 337.087407 
L 415.600072 338.926645 
L 422.093436 340.680898 
L 428.5868 342.354373 
L 435.080164 343.951218 
L 441.573529 345.475526 
L 448.066893 346.931329 
L 454.560257 348.322578 
L 461.053621 349.652626 
L 467.546985 350.924254 
L 474.040349 352.140213 
L 480.533713 353.303238 
L 487.027078 354.41606 
L 493.520442 355.481377 
L 500.013806 356.501757 
L 506.50717 357.479215 
L 513.000534 358.415554 
L 519.493898 359.312581 
L 525.987262 360.172108 
L 532.480627 360.995949 
L 538.973991 361.78593 
L 545.467355 362.543802 
L 551.960719 363.270908 
L 558.454083 363.968434 
L 564.947447 364.637566 
L 571.440812 365.279499 
L 577.934176 365.895442 
L 584.42754 366.486617 
L 590.920904 367.054246 
L 597.414268 367.599394 
L 603.907632 368.122855 
L 610.400996 368.625401 
L 616.894361 369.107822 
L 623.387725 369.570926 
L 629.881089 370.015525 
L 636.374453 370.442441 
L 642.867817 370.852505 
L 649.361181 371.24646 
L 655.854545 371.62485 
" style="fill:none;stroke:#000000;stroke-linecap:square;stroke-width:1.5;"/>
   </g>
   <g id="line2d_29">
    <path clip-path="url(#p91c64a3d98)" d="M 337.679702 577 
L 337.679702 -1 
" style="fill:none;stroke:#000000;stroke-dasharray:5.55,2.4;stroke-dashoffset:0;stroke-width:1.5;"/>
   </g>
   <g id="patch_3">
    <path d="M 108 512.64 
L 108 69.12 
" style="fill:none;stroke:#000000;stroke-linecap:square;stroke-linejoin:miter;stroke-width:0.8;"/>
   </g>
   <g id="patch_4">
    <path d="M 777.6 512.64 
L 777.6 69.12 
" style="fill:none;stroke:#000000;stroke-linecap:square;stroke-linejoin:miter;stroke-width:0.8;"/>
   </g>
   <g id="patch_5">
    <path d="M 108 512.64 
L 777.6 512.64 
" style="fill:none;stroke:#000000;stroke-linecap:square;stroke-linejoin:miter;stroke-width:0.8;"/>
   </g>
   <g id="patch_6">
    <path d="M 108 69.12 
L 777.6 69.12 
" style="fill:none;stroke:#000000;stroke-linecap:square;stroke-linejoin:miter;stroke-width:0.8;"/>
   </g>
   <g id="patch_7">
    <path d="M 153.05913 68.928183 
Q 153.801401 70.896193 154.543672 72.864203 
L 154.075842 73.040654 
Q 155.491979 78.920545 156.908115 84.800436 
Q 154.088488 79.449897 151.268861 74.099358 
L 150.80103 74.275809 
Q 150.058759 72.3078 149.316488 70.33979 
L 153.05913 68.928183 
z
" style="stroke:#000000;stroke-linecap:round;"/>
   </g>
   <g id="patch_8">
    <path d="M 168.044807 106.780741 
Q 168.503031 107.804513 168.961254 108.828285 
L 168.504882 109.03255 
Q 170.271999 114.816527 172.039116 120.600503 
Q 168.902881 115.429322 165.766647 110.25814 
L 165.310275 110.462405 
Q 164.852051 109.438632 164.393827 108.41486 
L 168.044807 106.780741 
z
" style="stroke:#000000;stroke-linecap:round;"/>
   </g>
   <g id="patch_9">
    <path d="M 183.209575 139.784525 
Q 183.424114 140.205408 183.638653 140.626292 
L 183.193187 140.853361 
Q 185.249414 146.538766 187.305641 152.22417 
Q 183.913017 147.219973 180.520392 142.215775 
L 180.074927 142.442844 
Q 179.860388 142.02196 179.645849 141.601076 
L 183.209575 139.784525 
z
" style="stroke:#000000;stroke-linecap:round;"/>
   </g>
   <g id="patch_10">
    <path d="M 197.973161 168.786112 
Q 200.339035 174.350745 202.704909 179.915378 
Q 199.042076 175.104333 195.379242 170.293289 
z
" style="stroke:#000000;stroke-linecap:round;"/>
   </g>
   <g id="patch_11">
    <path d="M 212.831221 193.246018 
Q 215.519272 198.662371 218.207323 204.078724 
Q 214.268725 199.490702 210.330128 194.90268 
z
" style="stroke:#000000;stroke-linecap:round;"/>
   </g>
   <g id="patch_12">
    <path d="M 227.550392 214.561184 
Q 230.675293 219.737813 233.800194 224.914443 
Q 229.497197 220.666301 225.194199 216.418158 
z
" style="stroke:#000000;stroke-linecap:round;"/>
   </g>
   <g id="patch_13">
    <path d="M 242.546074 233.23598 
Q 245.99324 238.203831 249.440406 243.171683 
Q 244.876451 239.205222 240.312495 235.23876 
z
" style="stroke:#000000;stroke-linecap:round;"/>
   </g>
   <g id="patch_14">
    <path d="M 257.612438 249.588265 
Q 261.369022 254.326469 265.125606 259.064673 
Q 260.318282 255.396958 255.510958 251.729242 
z
" style="stroke:#000000;stroke-linecap:round;"/>
   </g>
   <g id="patch_15">
    <path d="M 272.576517 263.955277 
Q 276.712936 268.36578 280.849354 272.776284 
Q 275.754548 269.519683 270.659741 266.263083 
z
" style="stroke:#000000;stroke-linecap:round;"/>
   </g>
   <g id="patch_16">
    <path d="M 287.808356 276.518291 
Q 292.200778 280.673905 296.5932 284.829519 
Q 291.313009 281.882981 286.032818 278.936444 
z
" style="stroke:#000000;stroke-linecap:round;"/>
   </g>
   <g id="patch_17">
    <path d="M 303.116885 287.572843 
Q 307.736411 291.474444 312.355936 295.376044 
Q 306.918156 292.731607 301.480376 290.08717 
z
" style="stroke:#000000;stroke-linecap:round;"/>
   </g>
   <g id="patch_18">
    <path d="M 348.843197 316.696579 
Q 343.789906 313.375924 338.736615 310.055269 
Q 344.451812 312.029863 350.167009 314.004457 
z
" style="stroke:#000000;stroke-linecap:round;"/>
   </g>
   <g id="patch_19">
    <path d="M 370.400551 325.829869 
Q 365.16053 322.812473 359.920509 319.795076 
Q 365.742042 321.429779 371.563575 323.064481 
z
" style="stroke:#000000;stroke-linecap:round;"/>
   </g>
   <g id="patch_20">
    <path d="M 391.975317 333.402199 
Q 386.545521 330.741405 381.115726 328.080611 
Q 387.033415 329.322969 392.951105 330.565328 
z
" style="stroke:#000000;stroke-linecap:round;"/>
   </g>
   <g id="patch_21">
    <path d="M 413.394022 339.925814 
Q 407.856018 337.498262 402.318014 335.070711 
Q 408.283169 336.060368 414.248325 337.050024 
z
" style="stroke:#000000;stroke-linecap:round;"/>
   </g>
   <g id="patch_22">
    <path d="M 434.771568 345.497331 
Q 429.148595 343.273667 423.525623 341.050002 
Q 429.522945 341.82113 435.520266 342.592258 
z
" style="stroke:#000000;stroke-linecap:round;"/>
   </g>
   <g id="patch_23">
    <path d="M 456.118232 350.273664 
Q 450.427646 348.229224 444.73706 346.184785 
Q 450.755797 346.765559 456.774535 347.346333 
z
" style="stroke:#000000;stroke-linecap:round;"/>
   </g>
   <g id="patch_24">
    <path d="M 477.470283 354.308582 
Q 471.710842 352.467022 465.951401 350.625463 
Q 471.986935 350.99265 478.022469 351.359838 
z
" style="stroke:#000000;stroke-linecap:round;"/>
   </g>
   <g id="patch_25">
    <path d="M 498.766456 357.862104 
Q 492.967035 356.15061 487.167613 354.439116 
Q 493.209882 354.670399 499.25215 354.901681 
z
" style="stroke:#000000;stroke-linecap:round;"/>
   </g>
   <g id="patch_26">
    <path d="M 520.048359 360.947362 
Q 514.216826 359.3487 508.385293 357.750039 
Q 514.430911 357.864057 520.476529 357.978074 
z
" style="stroke:#000000;stroke-linecap:round;"/>
   </g>
   <g id="patch_27">
    <path d="M 541.335125 363.584245 
Q 535.469618 362.115119 529.604112 360.645993 
Q 535.650772 360.626098 541.697433 360.606203 
z
" style="stroke:#000000;stroke-linecap:round;"/>
   </g>
   <g id="patch_28">
    <path d="M 562.594855 365.921871 
Q 556.709281 364.53532 550.823707 363.148769 
Q 556.869491 363.0439 562.915275 362.939031 
z
" style="stroke:#000000;stroke-linecap:round;"/>
   </g>
   <g id="patch_29">
    <path d="M 583.848638 367.963205 
Q 577.946276 366.649957 572.043914 365.336708 
Q 578.087926 365.15666 584.131938 364.976612 
z
" style="stroke:#000000;stroke-linecap:round;"/>
   </g>
   <g id="patch_30">
    <path d="M 605.097024 369.749674 
Q 599.180804 368.500341 593.264583 367.251009 
Q 599.306294 367.0056 605.348005 366.760191 
z
" style="stroke:#000000;stroke-linecap:round;"/>
   </g>
   <g id="patch_31">
    <path d="M 626.348509 371.285898 
Q 620.417065 370.110965 614.48562 368.936032 
Q 620.523773 368.614765 626.561925 368.293499 
z
" style="stroke:#000000;stroke-linecap:round;"/>
   </g>
   <g id="patch_32">
    <path d="M 647.588518 372.653612 
Q 641.647716 371.526948 635.706913 370.400285 
Q 641.742254 370.029931 647.777595 369.659576 
z
" style="stroke:#000000;stroke-linecap:round;"/>
   </g>
   <g id="text_1">
    <!-- $\text{Growth Rate}$ -->
    <defs>
     <path d="M 55.296875 8.03125 
L 55.40625 8.03125 
C 55.90625 5.578125 58.09375 0.296875 59.5 0.296875 
L 59.59375 0.296875 
C 59.703125 0.390625 59.796875 0.59375 59.796875 0.890625 
C 59.796875 1.1875 59.703125 1.703125 59.703125 1.90625 
L 59.703125 18.96875 
C 59.703125 19.578125 59.59375 20.390625 59.59375 21.109375 
C 59.59375 24.59375 62 24.796875 65.90625 24.796875 
L 65.90625 27 
L 43.59375 27 
L 43.59375 24.796875 
C 44.796875 24.796875 46.203125 24.890625 47.703125 24.890625 
C 52 24.890625 54.796875 24.59375 54.796875 20.1875 
L 54.796875 14.171875 
C 54.796875 8.75 52.296875 1.1875 38.40625 1.1875 
C 21.296875 1.1875 10.59375 16.40625 10.59375 35.09375 
C 10.59375 44.59375 13.203125 54.390625 20.203125 60.890625 
C 24.59375 65 31 67.796875 37.09375 67.796875 
C 48.5 67.796875 55.703125 57.5 57.796875 46.6875 
L 58.09375 44.59375 
C 58.296875 44 58.09375 43 59 43 
C 59.59375 43 59.703125 43.390625 59.703125 43.890625 
L 59.703125 69.09375 
C 59.703125 68.5 59.703125 68.890625 59.40625 69 
L 59.296875 69 
C 58.5 69 55.09375 59.78125 54.703125 58.21875 
C 49.796875 64.6875 45.40625 70 35.90625 70 
C 17.5 70 5 52.390625 5 34.6875 
C 5 17.234375 16.796875 -1 36.40625 -1 
C 43 -1 53.09375 1.296875 55.296875 8.03125 
z
" id="Computer_Modern_Roman-71"/>
     <path d="M 4.5 42.875 
L 4.5 40.65625 
L 5.5 40.65625 
C 8.703125 40.65625 10.40625 39.953125 10.40625 35.515625 
L 10.40625 5.625 
C 10.40625 2.390625 8 2.1875 4.5 2.1875 
L 4.5 0 
L 21.703125 0 
L 21.703125 2.1875 
L 19.703125 2.1875 
C 16.796875 2.1875 14.40625 2.5 14.40625 6.328125 
L 14.40625 21.078125 
C 14.40625 29.65625 16.203125 42.78125 25.90625 42.78125 
C 27 42.78125 28.09375 42.484375 29.09375 42.078125 
C 27.90625 41.5625 26.90625 40.765625 26.90625 39.34375 
C 26.90625 37.9375 28 36.515625 29.703125 36.515625 
C 31.203125 36.515625 32.40625 37.828125 32.40625 39.34375 
C 32.40625 42.6875 28.703125 44 26 44 
C 19.90625 44 15.296875 38.03125 14.40625 32.484375 
L 14.296875 44 
z
" id="Computer_Modern_Roman-114"/>
     <path d="M 21.09375 44 
C 9.59375 42.578125 3.703125 31.75 3.703125 21.234375 
C 3.703125 10.515625 10.703125 -1 22.5 -1 
L 23.5 -1 
C 35 0.40625 41 11.125 41 21.34375 
C 41 31.578125 34.09375 44 22.5 44 
C 22 44.09375 21.59375 44 21.09375 44 
z
M 8.796875 19.625 
L 8.796875 21.234375 
C 8.796875 28.828125 9.703125 37.3125 17.40625 41.5625 
C 18.703125 42.171875 20.203125 42.671875 21.703125 42.78125 
L 22.40625 42.78125 
C 32.09375 42.78125 35.90625 31.34375 35.90625 23.15625 
C 35.90625 15.171875 35.09375 3.75 25.09375 0.71875 
C 24.203125 0.515625 23.296875 0.3125 22.40625 0.3125 
C 15 0.3125 10.203125 7.796875 9.296875 14.96875 
C 9 16.484375 9 18.109375 8.796875 19.625 
z
" id="Computer_Modern_Roman-111"/>
     <path d="M 1.40625 43 
L 1.40625 40.796875 
L 2.203125 40.796875 
C 6.203125 40.796875 6.703125 38.96875 8.796875 32.515625 
L 19 1.421875 
C 19.296875 0.609375 19.5 -1 20.59375 -1 
L 20.703125 -1 
C 21.59375 -0.8125 21.90625 1.015625 22.203125 1.8125 
L 28 19.484375 
C 28.90625 22.3125 29.796875 25.140625 30.796875 27.96875 
C 31.296875 29.578125 32 31.203125 32.296875 32.8125 
L 32.40625 32.8125 
C 32.703125 31.203125 33.40625 29.578125 33.90625 27.96875 
C 34.90625 25.140625 35.796875 22.3125 36.703125 19.484375 
L 42.5 1.8125 
C 42.796875 1.015625 43.09375 -0.8125 44 -1 
L 44.09375 -1 
C 45.203125 -1 45.40625 0.609375 45.703125 1.421875 
L 48.40625 9.59375 
C 51 17.5625 53.59375 25.453125 56.203125 33.421875 
C 57.203125 36.65625 59 40.796875 63.296875 40.796875 
L 63.296875 43 
L 51.5 43 
L 51.5 40.796875 
C 54 40.796875 55.5 38.46875 55.5 36.65625 
C 55.5 35.140625 54.90625 33.625 54.40625 32.203125 
C 51.40625 23.21875 48.5 14.140625 45.5 5.15625 
C 44.296875 7.984375 43.5 11 42.59375 13.9375 
C 40.296875 20.90625 37.90625 27.96875 35.59375 35.03125 
C 35.296875 36.046875 34.703125 37.265625 34.703125 38.375 
C 34.703125 40.484375 37.296875 40.796875 38.90625 40.796875 
L 38.90625 43 
L 25 43 
L 25 40.796875 
L 25.703125 40.796875 
C 28.5 40.796875 30 40.1875 31 36.75 
C 31.203125 36.25 31.5 35.546875 31.5 34.9375 
L 31.5 34.734375 
C 31.40625 33.71875 31 32.8125 30.703125 31.90625 
L 28.796875 26.359375 
C 26.40625 19.484375 24 12.421875 22 5.453125 
L 21.90625 5.453125 
C 21.703125 6.5625 21.203125 7.671875 20.90625 8.78125 
L 19 14.546875 
C 17.09375 20.296875 15.203125 25.953125 13.296875 31.703125 
L 11.90625 36.140625 
C 11.59375 36.859375 11.296875 37.65625 11.296875 38.375 
L 11.296875 38.671875 
C 11.59375 40.484375 14 40.796875 15.5 40.796875 
L 15.5 43 
z
" id="Computer_Modern_Roman-119"/>
     <path d="M 13.203125 62 
C 13.203125 56.140625 11.90625 41.984375 1.703125 41.984375 
L 1.703125 40.796875 
L 10.40625 40.796875 
L 10.40625 17.46875 
C 10.40625 16.0625 10.296875 14.4375 10.296875 12.921875 
C 10.296875 6.671875 12.296875 -1 20.59375 -1 
C 28.296875 -1 29.796875 7.578125 29.796875 13.828125 
L 29.796875 17.765625 
L 28.5 17.765625 
C 28.5 16.25 28.59375 14.75 28.59375 13.125 
C 28.59375 8.578125 27.703125 0.3125 21.5 0.3125 
C 15.703125 0.3125 14.40625 7.46875 14.40625 12.921875 
C 14.40625 14.640625 14.5 16.25 14.5 17.96875 
L 14.5 40.796875 
L 28.296875 40.796875 
L 28.296875 43 
L 14.5 43 
L 14.5 62 
z
" id="Computer_Modern_Roman-116"/>
     <path d="M 4.703125 68.875 
L 4.703125 66.65625 
L 5.90625 66.65625 
C 9.40625 66.65625 10.59375 65.140625 10.59375 61.71875 
L 10.59375 5.828125 
C 10.59375 2.796875 9.296875 2.1875 4.703125 2.1875 
L 4.703125 0 
L 20.59375 0 
L 20.59375 2.1875 
L 19.203125 2.1875 
C 16.90625 2.1875 14.703125 2.5 14.703125 5.625 
L 14.703125 27.71875 
C 15.296875 34.578125 18.796875 42.75 26.703125 42.75 
C 33 42.75 35.40625 37.703125 35.40625 30.4375 
L 35.40625 5.625 
C 35.40625 2.390625 33 2.1875 29.5 2.1875 
L 29.5 0 
L 45.40625 0 
L 45.40625 2.1875 
L 43.796875 2.1875 
C 41.5 2.1875 39.5 2.5 39.5 6.03125 
L 39.5 29.328125 
C 39.5 36.09375 38.203125 43.96875 27.5 43.96875 
C 22.296875 43.96875 18.40625 41.03125 16.09375 36.796875 
C 15.5 35.796875 14.90625 34.578125 14.703125 33.46875 
L 14.59375 70 
z
" id="Computer_Modern_Roman-104"/>
     <path d="M 7.296875 68 
L 7.296875 65.796875 
L 9 65.796875 
C 11.59375 65.796875 13.703125 65.5 13.703125 61.609375 
L 13.703125 6.375 
C 13.703125 2.484375 12 2.1875 7.296875 2.1875 
L 7.296875 0 
L 24.90625 0 
L 24.90625 2.1875 
L 23.203125 2.1875 
C 20.703125 2.1875 18.5 2.484375 18.5 6.171875 
L 18.5 33.453125 
L 25.90625 33.453125 
C 27.296875 33.453125 28.703125 33.546875 30.09375 33.546875 
C 37 33.546875 44.90625 29.96875 45.796875 21.296875 
L 45.796875 13.34375 
C 45.796875 8.34375 46.40625 -1 58 -1 
C 62.796875 -1 65.296875 3.46875 65.703125 7.734375 
L 65.703125 8.234375 
C 65.703125 8.640625 65.59375 9.125 65.09375 9.125 
C 64.40625 9.125 64.296875 8.234375 64.296875 7.546875 
L 64.296875 7.140625 
C 63.90625 3.859375 61.796875 0.1875 58.203125 0.1875 
C 52.296875 0.1875 51.703125 7.4375 51.40625 12.015625 
C 50.59375 21.859375 50.796875 30.796875 37.203125 33.984375 
C 43.90625 36.078125 50.09375 37.765625 53.703125 45.3125 
C 54.296875 46.78125 54.703125 48.46875 54.703125 50.171875 
C 54.703125 61.421875 42.796875 67.296875 32.59375 68 
z
M 18.5 34.640625 
L 18.5 63 
C 18.5 64.796875 19.296875 65.796875 21.203125 65.796875 
L 29.796875 65.796875 
C 38.796875 65.796875 49.09375 61.90625 49.09375 50.171875 
C 49.09375 41.703125 43.09375 36.734375 35.296875 35.03125 
C 32.796875 34.640625 30.203125 34.640625 27.703125 34.640625 
z
" id="Computer_Modern_Roman-82"/>
     <path d="M 9 32.15625 
C 10.296875 37.515625 13.796875 42.78125 19.90625 42.78125 
C 25.296875 42.78125 29.203125 37.625 30 32.65625 
C 30.203125 31.34375 30.203125 29.921875 30.203125 28.609375 
L 30.203125 24.671875 
C 20.59375 24.671875 7.40625 22.4375 5 10.296875 
C 4.90625 9.6875 4.90625 8.984375 4.90625 8.375 
C 4.90625 1.59375 12.5 -1 17.703125 -1 
C 22.59375 -1 29 2.203125 30.296875 7.765625 
L 30.40625 7.765625 
C 30.40625 3.515625 33.203125 -0.703125 37.40625 -0.703125 
C 42.90625 -0.703125 44.203125 5.234375 44.203125 9.59375 
L 44.203125 14.140625 
L 42.90625 14.140625 
L 42.90625 8.984375 
C 42.90625 5.75 42.203125 1.09375 38.59375 1.09375 
C 34.5 1.09375 34.296875 6.453125 34.296875 9.1875 
L 34.296875 28 
C 34.296875 30.53125 34.203125 33.171875 33.203125 35.59375 
C 31.09375 40.546875 25.59375 44 20.203125 44 
C 12.5 44 7.5 37.109375 7.5 29.625 
C 7.5 27.703125 8.90625 26.59375 10.5 26.59375 
C 12.09375 26.59375 13.40625 27.90625 13.40625 29.53125 
C 13.40625 31.046875 12.40625 32.453125 10.5 32.453125 
C 10 32.453125 9.5 32.359375 9 32.15625 
z
M 30.203125 23.546875 
L 30.203125 13.640625 
C 30.203125 6.953125 26.09375 0.6875 19.203125 0.1875 
L 18.59375 0.1875 
C 14 0.1875 9.796875 3.828125 9.796875 8.78125 
C 9.796875 19.3125 21.296875 23.546875 30.203125 23.546875 
z
" id="Computer_Modern_Roman-97"/>
     <path d="M 8.796875 23.671875 
L 35.09375 23.671875 
C 35.296875 23.671875 35.703125 23.5625 36.09375 23.5625 
C 36.796875 23.5625 37.09375 23.96875 37.09375 24.578125 
C 37.09375 33.578125 32.796875 44 21.59375 44 
C 9.59375 44 3.703125 31.546875 3.703125 21.640625 
C 3.703125 11.734375 9.203125 0.515625 21.09375 -1 
C 21.5 -0.90625 21.90625 -1 22.296875 -1 
C 29.203125 -1 34.5 3.828125 36.796875 10.390625 
C 36.90625 10.703125 37 11.09375 37 11.40625 
C 37 11.703125 36.90625 12 36.5 12 
C 35.5 12 35.40625 10.390625 35.09375 9.484375 
C 33.09375 4.640625 28.796875 0.40625 23.203125 0.40625 
C 19 0.40625 15 2.828125 12.703125 6.25 
C 9 11.296875 8.796875 17.765625 8.796875 23.703125 
z
M 8.90625 24.921875 
C 9.09375 32.796875 13 42.78125 21.40625 42.78125 
C 28.40625 42.78125 31.40625 35.3125 32.203125 29.46875 
C 32.296875 27.953125 32.296875 26.4375 32.5 24.921875 
z
" id="Computer_Modern_Roman-101"/>
    </defs>
    <g transform="translate(108 60.2496)scale(0.26 -0.26)">
     <use transform="scale(0.356961)" xlink:href="#Computer_Modern_Roman-71"/>
     <use transform="translate(25.075325 0)scale(0.356961)" xlink:href="#Computer_Modern_Roman-114"/>
     <use transform="translate(37.493402 0)scale(0.356961)" xlink:href="#Computer_Modern_Roman-111"/>
     <use transform="translate(52.577265 0)scale(0.356961)" xlink:href="#Computer_Modern_Roman-119"/>
     <use transform="translate(75.658435 0)scale(0.356961)" xlink:href="#Computer_Modern_Roman-116"/>
     <use transform="translate(88.076512 0)scale(0.356961)" xlink:href="#Computer_Modern_Roman-104"/>
     <use transform="translate(116.467027 0)scale(0.356961)" xlink:href="#Computer_Modern_Roman-82"/>
     <use transform="translate(139.982177 0)scale(0.356961)" xlink:href="#Computer_Modern_Roman-97"/>
     <use transform="translate(155.954629 0)scale(0.356961)" xlink:href="#Computer_Modern_Roman-116"/>
     <use transform="translate(168.372707 0)scale(0.356961)" xlink:href="#Computer_Modern_Roman-101"/>
    </g>
   </g>
   <g id="text_2">
    <!-- $m_{t}$ -->
    <defs>
     <path d="M 20.59375 29.21875 
C 20.796875 29.828125 23.296875 34.8125 27 38 
C 29.59375 40.390625 33 41.984375 36.90625 41.984375 
C 40.90625 41.984375 42.296875 39 42.296875 35.015625 
C 42.296875 34.40625 42.296875 32.421875 41.09375 27.734375 
L 38.59375 17.453125 
C 37.796875 14.453125 35.90625 7.078125 35.703125 5.984375 
C 35.296875 4.484375 34.703125 1.890625 34.703125 1.484375 
C 34.703125 0.09375 35.796875 -1 37.296875 -1 
C 40.296875 -1 40.796875 1.296875 41.703125 4.890625 
L 47.703125 28.71875 
C 47.90625 29.53125 53.09375 41.984375 64.09375 41.984375 
C 68.09375 41.984375 69.5 39 69.5 35.015625 
C 69.5 29.421875 65.59375 18.546875 63.40625 12.5625 
C 62.5 10.171875 62 8.875 62 7.078125 
C 62 2.59375 65.09375 -1 69.90625 -1 
C 79.203125 -1 82.703125 13.65625 82.703125 14.265625 
C 82.703125 14.765625 82.296875 15.15625 81.703125 15.15625 
C 80.796875 15.15625 80.703125 14.859375 80.203125 13.15625 
C 77.90625 5.1875 74.203125 1 70.203125 1 
C 69.203125 1 67.59375 1.09375 67.59375 4.28125 
C 67.59375 6.875 68.796875 10.078125 69.203125 11.171875 
C 71 15.953125 75.5 27.734375 75.5 33.515625 
C 75.5 39.5 72 44 64.40625 44 
C 57.703125 44 52.296875 40.203125 48.296875 34.3125 
C 48 39.703125 44.703125 44 37.203125 44 
C 28.296875 44 23.59375 37.703125 21.796875 35.203125 
C 21.5 40.890625 17.40625 44 13 44 
C 10.09375 44 7.796875 42.59375 5.90625 38.796875 
C 4.09375 35.203125 2.703125 29.125 2.703125 28.71875 
C 2.703125 28.328125 3.09375 27.828125 3.796875 27.828125 
C 4.59375 27.828125 4.703125 27.921875 5.296875 30.21875 
C 6.796875 36.109375 8.703125 41.984375 12.703125 41.984375 
C 15 41.984375 15.796875 40.390625 15.796875 37.40625 
C 15.796875 35.203125 14.796875 31.3125 14.09375 28.234375 
L 11.296875 17.453125 
C 10.90625 15.5625 9.796875 11.0625 9.296875 9.265625 
C 8.59375 6.671875 7.5 1.984375 7.5 1.484375 
C 7.5 0.09375 8.59375 -1 10.09375 -1 
C 11.296875 -1 12.703125 -0.40625 13.5 1.09375 
C 13.703125 1.59375 14.59375 5.078125 15.09375 7.078125 
L 17.296875 16.0625 
z
" id="CMMI12-109"/>
     <path d="M 20.09375 40.09375 
L 29.296875 40.09375 
C 31.203125 40.09375 32.203125 40.09375 32.203125 41.890625 
C 32.203125 43 31.59375 43 29.59375 43 
L 20.796875 43 
L 24.5 57.25 
C 24.90625 58.625 24.90625 58.8125 24.90625 59.5 
C 24.90625 61.09375 23.59375 62 22.296875 62 
C 21.5 62 19.203125 61.6875 18.40625 58.53125 
L 14.5 43 
L 5.09375 43 
C 3.09375 43 2.203125 43 2.203125 41.09375 
C 2.203125 40.09375 2.90625 40.09375 4.796875 40.09375 
L 13.703125 40.09375 
L 7.09375 13.765625 
C 6.296875 10.265625 6 9.265625 6 7.96875 
C 6 3.28125 9.296875 -1 14.90625 -1 
C 25 -1 30.40625 13.5625 30.40625 14.265625 
C 30.40625 14.859375 30 15.15625 29.40625 15.15625 
C 29.203125 15.15625 28.796875 15.15625 28.59375 14.75 
C 28.5 14.65625 28.40625 14.5625 27.703125 12.96875 
C 25.59375 7.96875 21 1 15.203125 1 
C 12.203125 1 12 3.484375 12 5.6875 
C 12 5.78125 12 7.671875 12.296875 8.875 
z
" id="CMMI12-116"/>
    </defs>
    <g transform="translate(780.643636 534.816)scale(0.26 -0.26)">
     <use transform="translate(0 14.943915)scale(0.996264)" xlink:href="#CMMI12-109"/>
     <use transform="translate(85.327224 0)scale(0.697382)" xlink:href="#CMMI12-116"/>
    </g>
   </g>
   <g id="text_3">
    <!-- $\Ex_{t}[\cLevBF_{t+1}/\cLevBF_{t}]$ -->
    <defs>
     <path d="M 25.90625 34 
C 28.40625 34 33.203125 34 36.703125 31.859375 
C 41.5 28.71875 41.90625 23.25 41.90625 22.640625 
C 42 21.21875 42 19.90625 43.703125 19.90625 
C 45.40625 19.90625 45.40625 21.328125 45.40625 23.15625 
L 45.40625 50.4375 
C 45.40625 52.046875 45.40625 53.65625 43.703125 53.65625 
C 42 53.65625 41.90625 52.140625 41.90625 51.34375 
C 41.296875 38.390625 31.09375 37.6875 25.90625 37.59375 
L 25.90625 58.765625 
C 25.90625 65.484375 27.796875 65.484375 30.203125 65.484375 
L 35 65.484375 
C 48.5 65.484375 55.203125 58.5625 55.796875 51.640625 
C 55.90625 50.84375 56 49.328125 57.59375 49.328125 
C 59.296875 49.328125 59.296875 50.9375 59.296875 52.640625 
L 59.296875 65.6875 
C 59.296875 68.796875 59.09375 69 56 69 
L 4.796875 69 
C 3 69 1.40625 69 1.40625 67.1875 
C 1.40625 65.484375 3.296875 65.484375 4.09375 65.484375 
C 9.796875 65.484375 10.203125 64.6875 10.203125 59.765625 
L 10.203125 9.265625 
C 10.203125 4.5 9.90625 3.5 4.59375 3.5 
C 3.09375 3.5 1.40625 3.5 1.40625 1.796875 
C 1.40625 0 3 0 4.796875 0 
L 57.796875 0 
C 59.703125 0 60.703125 0 61 1.390625 
C 61.09375 1.5 63.90625 18.390625 63.90625 18.890625 
C 63.90625 20.015625 63 20.71875 62.203125 20.71875 
C 60.796875 20.71875 60.40625 19.40625 60.40625 19.296875 
C 59.796875 16.671875 58.796875 12.40625 51.5 8.046875 
C 46.296875 4.90625 41.203125 3.5 35.703125 3.5 
L 30.203125 3.5 
C 27.796875 3.5 25.90625 3.5 25.90625 10.28125 
z
M 55.796875 65.484375 
L 55.796875 60.671875 
C 54.09375 62.578125 52.203125 64.1875 50.09375 65.484375 
z
M 36.296875 36.09375 
C 37.90625 36.796875 40.09375 38.296875 41.90625 40.40625 
L 41.90625 31.96875 
C 39.5 34.6875 36.40625 36 36.296875 36 
z
M 13.703125 59.96875 
C 13.703125 61.171875 13.703125 63.6875 12.90625 65.484375 
L 23.5 65.484375 
C 22.40625 63.1875 22.40625 59.875 22.40625 58.96875 
L 22.40625 10.078125 
C 22.40625 6.4375 23.09375 4.40625 23.5 3.5 
L 12.90625 3.5 
C 13.703125 5.3125 13.703125 7.84375 13.703125 9.0625 
z
M 50.90625 3.5 
L 50.90625 3.59375 
C 54.09375 5.21875 56.796875 7.34375 58.796875 9.171875 
C 58.703125 8.765625 58 4.296875 57.90625 3.5 
z
" id="MSBM10-69"/>
     <path d="M 23.5 -25 
L 23.5 -21.5 
L 14.09375 -21.5 
L 14.09375 71.484375 
L 23.5 71.484375 
L 23.5 75 
L 10.59375 75 
L 10.59375 -25 
z
" id="CMR17-91"/>
     <path d="M 46.796875 11.3125 
C 46.796875 12.515625 45.703125 12.515625 44.703125 12.515625 
C 43.09375 12.515625 43 12.421875 42.5 11.21875 
C 41.796875 9.3125 39.09375 2.59375 29.90625 2.59375 
C 15.796875 2.59375 15.796875 17.828125 15.796875 22.34375 
C 15.796875 28.25 15.90625 41.390625 29 41.390625 
C 29.703125 41.390625 35.59375 41.1875 35.59375 40.6875 
C 35.59375 40.59375 35.5 40.484375 35.296875 40.390625 
C 35 40.09375 33.703125 38.578125 33.703125 36.078125 
C 33.703125 31.859375 37.09375 30.15625 39.59375 30.15625 
C 41.703125 30.15625 45.5 31.46875 45.5 36.171875 
C 45.5 44.390625 34 45 28.59375 45 
C 10.796875 45 3.796875 33.375 3.796875 21.84375 
C 3.796875 8.203125 13.296875 -1 28 -1 
C 43.703125 -1 46.796875 10.609375 46.796875 11.3125 
z
" id="CMBX12-99"/>
     <path d="M 37.703125 23 
L 64.203125 23 
C 65.59375 23 67.296875 23 67.296875 24.6875 
C 67.296875 26.5 65.703125 26.5 64.203125 26.5 
L 37.703125 26.5 
L 37.703125 52.890625 
C 37.703125 54.296875 37.703125 56 36 56 
C 34.203125 56 34.203125 54.390625 34.203125 52.890625 
L 34.203125 26.5 
L 7.703125 26.5 
C 6.296875 26.5 4.59375 26.5 4.59375 24.796875 
C 4.59375 23 6.203125 23 7.703125 23 
L 34.203125 23 
L 34.203125 -3.03125 
C 34.203125 -4.40625 34.203125 -6.109375 35.90625 -6.109375 
C 37.703125 -6.109375 37.703125 -4.515625 37.703125 -3.03125 
z
" id="CMR17-43"/>
     <path d="M 26.59375 63.796875 
C 26.59375 65.890625 26.5 66 25.09375 66 
C 21.203125 61.359375 15.296875 59.890625 9.703125 59.6875 
C 9.40625 59.6875 8.90625 59.6875 8.796875 59.5 
C 8.703125 59.296875 8.703125 59.09375 8.703125 57 
C 11.796875 57 17 57.59375 21 59.984375 
L 21 7.296875 
C 21 3.796875 20.796875 2.59375 12.203125 2.59375 
L 9.203125 2.59375 
L 9.203125 0 
C 14 0.09375 19 0.1875 23.796875 0.1875 
C 28.59375 0.1875 33.59375 0.09375 38.40625 0 
L 38.40625 2.59375 
L 35.40625 2.59375 
C 26.796875 2.59375 26.59375 3.6875 26.59375 7.296875 
z
" id="CMR17-49"/>
     <path d="M 42.90625 71.296875 
C 42.90625 71.390625 43.5 72.890625 43.5 73.09375 
C 43.5 74.296875 42.5 75 41.703125 75 
C 41.203125 75 40.296875 75 39.5 72.796875 
L 6 -21.3125 
C 6 -21.40625 5.40625 -22.90625 5.40625 -23.109375 
C 5.40625 -24.3125 6.40625 -25 7.203125 -25 
C 7.796875 -25 8.703125 -24.90625 9.40625 -22.8125 
z
" id="CMMI12-61"/>
     <path d="M 14.296875 75 
L 1.40625 75 
L 1.40625 71.484375 
L 10.796875 71.484375 
L 10.796875 -21.5 
L 1.40625 -21.5 
L 1.40625 -25 
L 14.296875 -25 
z
" id="CMR17-93"/>
    </defs>
    <g transform="translate(661.941818 379.584)scale(0.22 -0.22)">
     <use transform="translate(0 14.943915)scale(0.996264)" xlink:href="#MSBM10-69"/>
     <use transform="translate(66.417819 0)scale(0.697382)" xlink:href="#CMMI12-116"/>
     <use transform="translate(91.57426 14.943915)scale(0.996264)" xlink:href="#CMR17-91"/>
     <use transform="translate(116.445319 14.943915)scale(0.996264)" xlink:href="#CMBX12-99"/>
     <use transform="translate(166.258519 0)scale(0.697382)" xlink:href="#CMMI12-116"/>
     <use transform="translate(190.916829 0)scale(0.697382)" xlink:href="#CMR17-43"/>
     <use transform="translate(241.11696 0)scale(0.697382)" xlink:href="#CMR17-49"/>
     <use transform="translate(273.598274 14.943915)scale(0.996264)" xlink:href="#CMMI12-61"/>
     <use transform="translate(322.373193 14.943915)scale(0.996264)" xlink:href="#CMBX12-99"/>
     <use transform="translate(372.186393 0)scale(0.697382)" xlink:href="#CMMI12-116"/>
     <use transform="translate(397.342835 14.943915)scale(0.996264)" xlink:href="#CMR17-93"/>
    </g>
   </g>
   <g id="text_4">
    <!-- $\check{m}$ -->
    <defs>
     <path d="M 22.90625 56 
L 11.703125 64 
L 10.703125 62.59375 
L 22.90625 51.984375 
L 35.09375 62.59375 
L 34.09375 64 
z
" id="CMR17-20"/>
    </defs>
    <g transform="translate(325.505157 539.2512)scale(0.26 -0.26)">
     <use transform="translate(19.818381 0.006461)scale(0.996264)" xlink:href="#CMR17-20"/>
     <use transform="scale(0.996264)" xlink:href="#CMMI12-109"/>
    </g>
   </g>
   <g id="text_5">
    <!-- $\pmb{\text{\TH}} = (\Rfree\DiscFac)^{1/\CRRA}$ -->
    <defs>
     <path d="M 7.40625 68 
L 7.40625 65.796875 
L 9.09375 65.796875 
C 11.703125 65.796875 13.796875 65.5 13.796875 61.734375 
L 13.796875 6.390625 
C 13.796875 2.5 12.09375 2.1875 7.40625 2.1875 
L 7.40625 0 
L 24.90625 0 
L 24.90625 2.1875 
L 22.90625 2.1875 
C 20.59375 2.1875 18.5 2.5 18.5 5.6875 
L 18.5 17.796875 
L 34 17.796875 
C 43.703125 18.6875 50.796875 26.90625 50.796875 36.34375 
C 50.796875 44.875 44.703125 53.296875 35.40625 54.6875 
C 33.796875 55 32.203125 55 30.59375 55 
L 18.5 55 
L 18.5 61.9375 
C 18.5 64.640625 18.90625 65.796875 24.90625 65.796875 
L 24.90625 68 
z
M 18.5 20 
L 18.5 52.796875 
L 27.90625 52.796875 
C 32.703125 52.796875 37.40625 52.390625 41 48.078125 
C 43.796875 44.875 45.296875 40.5625 45.296875 36.34375 
C 45.296875 29.21875 40.40625 21.09375 31.296875 20 
z
" id="Computer_Modern_Roman-222"/>
     <path d="M 64.296875 32 
C 65.796875 32 67.296875 32 67.296875 33.6875 
C 67.296875 35.5 65.59375 35.5 63.90625 35.5 
L 8 35.5 
C 6.296875 35.5 4.59375 35.5 4.59375 33.6875 
C 4.59375 32 6.09375 32 7.59375 32 
z
M 63.90625 14.484375 
C 65.59375 14.484375 67.296875 14.484375 67.296875 16.296875 
C 67.296875 18 65.796875 18 64.296875 18 
L 7.59375 18 
C 6.09375 18 4.59375 18 4.59375 16.296875 
C 4.59375 14.484375 6.296875 14.484375 8 14.484375 
z
" id="CMR17-61"/>
     <path d="M 30.59375 -24.40625 
C 30.59375 -24.3125 30.59375 -24.109375 30.296875 -23.8125 
C 25.703125 -19.109375 13.40625 -6.296875 13.40625 24.9375 
C 13.40625 56.171875 25.5 68.875 30.40625 73.890625 
C 30.40625 73.984375 30.59375 74.1875 30.59375 74.484375 
C 30.59375 74.796875 30.296875 75 29.90625 75 
C 28.796875 75 20.296875 67.578125 15.40625 56.5625 
C 10.40625 45.453125 9 34.65625 9 25.046875 
C 9 17.828125 9.703125 5.625 15.703125 -7.296875 
C 20.5 -17.703125 28.703125 -25 29.90625 -25 
C 30.40625 -25 30.59375 -24.8125 30.59375 -24.40625 
z
" id="CMR17-40"/>
     <path d="M 39.40625 32.796875 
L 39.59375 32.890625 
C 55.203125 38.28125 55.296875 48.828125 55.296875 50.6875 
C 55.296875 59.96875 45.703125 69 31.296875 69 
L 8.90625 69 
L 8.90625 0 
L 17.09375 0 
L 17.09375 31.890625 
L 31.796875 31.890625 
L 49.5 0 
L 57.90625 0 
z
M 17.09375 38 
L 17.09375 63.390625 
L 30.203125 63.390625 
C 42.90625 63.390625 47.40625 56.359375 47.40625 50.6875 
C 47.40625 45.421875 43.40625 38 30.203125 38 
z
" id="CMSS17-82"/>
     <path d="M 56.59375 58.421875 
C 56.59375 64.546875 51.5 71 42.40625 71 
C 29.5 71 21.296875 54.84375 18.703125 44.21875 
L 2.90625 -18 
C 2.703125 -18.8125 3.296875 -19 3.796875 -19 
C 4.5 -19 5 -18.90625 5.09375 -18.40625 
L 12.09375 9.25 
C 13.09375 3.609375 18.59375 -1 24.5 -1 
C 38.796875 -1 52.296875 10.265625 52.296875 25.28125 
C 52.296875 29.109375 51.40625 32.9375 49.296875 36.15625 
C 48.09375 38.078125 46.59375 39.484375 45 40.609375 
C 52.203125 44.109375 56.59375 50.34375 56.59375 58.421875 
z
M 39.203125 40.703125 
C 37.59375 40.171875 36 40 34.09375 40 
C 32.703125 40 31.40625 39.890625 29.59375 40.4375 
C 30.59375 41.046875 32.09375 41.234375 34.203125 41.234375 
C 36 41.234375 37.796875 41.046875 39.203125 40.703125 
z
M 51.40625 59.34375 
C 51.40625 53.71875 48.703125 45.546875 42.203125 41.9375 
C 40.296875 42.546875 37.703125 43 35.5 43 
C 33.40625 43 27.40625 43.203125 27.40625 40.34375 
C 27.40625 37.671875 32.90625 37.96875 34.59375 37.96875 
C 37.203125 37.96875 39.5 38.578125 41.90625 39.28125 
C 45.09375 36.671875 46.5 33.234375 46.5 28.203125 
C 46.5 22.359375 44.90625 17.625 43 13.28125 
C 39.703125 5.828125 31.90625 1 25 1 
C 17.703125 1 13.90625 6.84375 13.90625 13.6875 
C 13.90625 14.59375 13.90625 15.90625 14.296875 17.421875 
L 20.796875 43.5 
C 24.09375 56.890625 32.5 68.953125 42.203125 68.953125 
C 49.40625 68.953125 51.40625 63.84375 51.40625 59.34375 
z
" id="CMMI12-12"/>
     <path d="M 26.296875 24.9375 
C 26.296875 32.140625 25.59375 44.359375 19.59375 57.265625 
C 14.796875 67.6875 6.59375 75 5.40625 75 
C 5.09375 75 4.703125 74.890625 4.703125 74.390625 
C 4.703125 74.1875 4.796875 74.09375 4.90625 73.890625 
C 9.703125 68.875 21.90625 56.171875 21.90625 25.046875 
C 21.90625 -6.1875 9.796875 -18.90625 4.90625 -23.90625 
C 4.796875 -24.109375 4.703125 -24.203125 4.703125 -24.40625 
C 4.703125 -24.90625 5.09375 -25 5.40625 -25 
C 6.5 -25 15 -17.609375 19.90625 -6.59375 
C 24.90625 4.515625 26.296875 15.328125 26.296875 24.9375 
z
" id="CMR17-41"/>
     <path d="M 3.09375 -16.953125 
C 3 -17.4375 2.796875 -18.03125 2.796875 -18.609375 
C 2.796875 -20.109375 4 -21.109375 5.5 -21.109375 
C 7 -21.109375 8.40625 -20.109375 9 -18.71875 
C 9.40625 -17.828125 12.203125 -6.09375 15.40625 6.078125 
C 17.40625 1.09375 21.09375 -1 25 -1 
C 36.296875 -1 49.09375 12.96875 49.09375 28.03125 
C 49.09375 38.703125 42.59375 44 35.703125 44 
C 26.90625 44 16.203125 34.90625 12.90625 21.640625 
z
M 24.90625 1 
C 18.09375 1 16.40625 8.875 16.40625 10.078125 
C 16.40625 10.671875 18.90625 20.140625 19.203125 21.640625 
C 24.296875 41.5 34.09375 41.984375 35.59375 41.984375 
C 40.09375 41.984375 42.59375 37.90625 42.59375 32.015625 
C 42.59375 26.9375 39.90625 17.046875 38.203125 12.859375 
C 35.203125 5.984375 30 1 24.90625 1 
z
" id="CMMI12-26"/>
    </defs>
    <g transform="translate(661.941818 432.8064)scale(0.22 -0.22)">
     <use transform="scale(0.356961)" xlink:href="#Computer_Modern_Roman-222"/>
     <use transform="translate(2.213881 2.767393)scale(0.356961)" xlink:href="#Computer_Modern_Roman-222"/>
     <use transform="translate(4.427762 0)scale(0.356961)" xlink:href="#Computer_Modern_Roman-222"/>
     <use transform="translate(52.062547 0)scale(0.996264)" xlink:href="#CMR17-61"/>
     <use transform="translate(151.451345 0)scale(0.996264)" xlink:href="#CMR17-40"/>
     <use transform="translate(186.732112 0)scale(0.996264)" xlink:href="#CMSS17-82"/>
     <use transform="translate(247.148267 0)scale(0.996264)" xlink:href="#CMMI12-12"/>
     <use transform="translate(307.742283 0)scale(0.996264)" xlink:href="#CMR17-41"/>
     <use transform="translate(343.023051 36.153639)scale(0.697382)" xlink:href="#CMR17-49"/>
     <use transform="translate(375.006233 36.153639)scale(0.697382)" xlink:href="#CMMI12-61"/>
     <use transform="translate(409.148524 36.153639)scale(0.697382)" xlink:href="#CMMI12-26"/>
    </g>
   </g>
   <g id="text_6">
    <!-- $\PermGroFac$ -->
    <defs>
     <path d="M 51.796875 68 
L 5.09375 68 
L 5.09375 65.390625 
C 12 65.390625 13.09375 65.390625 13.09375 60.890625 
L 13.09375 7.078125 
C 13.09375 2.59375 12 2.59375 5.09375 2.59375 
L 5.09375 0 
C 8 0.1875 13.59375 0.1875 16.703125 0.1875 
C 20.796875 0.1875 25.59375 0.1875 29.703125 0 
L 29.703125 2.59375 
L 27.5 2.59375 
C 19.90625 2.59375 19.703125 3.59375 19.703125 7.1875 
L 19.703125 61.5 
C 19.703125 64.890625 19.90625 65.390625 23.90625 65.390625 
L 34.90625 65.390625 
C 50.09375 65.390625 50.90625 58.40625 52.40625 45.921875 
L 54.203125 45.921875 
z
" id="CMR17-0"/>
    </defs>
    <g transform="translate(661.941818 290.88)scale(0.22 -0.22)">
     <use transform="scale(0.996264)" xlink:href="#CMR17-0"/>
    </g>
   </g>
  </g>
 </g>
 <defs>
  <clipPath id="p91c64a3d98">
   <rect height="443.52" width="669.6" x="108" y="69.12"/>
  </clipPath>
 </defs>
</svg>
